<?xml version="1.0" encoding="UTF-8" standalone="no"?>
<!-- Created with Inkscape (http://www.inkscape.org/) -->

<svg
   version="1.1"
   id="svg1416"
   width="682.66669"
   height="682.66669"
   viewBox="0 0 682.66669 682.66669"
   sodipodi:docname="trace.svg"
   inkscape:version="1.2 (dc2aedaf03, 2022-05-15)"
   xmlns:inkscape="http://www.inkscape.org/namespaces/inkscape"
   xmlns:sodipodi="http://sodipodi.sourceforge.net/DTD/sodipodi-0.dtd"
   xmlns="http://www.w3.org/2000/svg"
   xmlns:svg="http://www.w3.org/2000/svg">
  <defs
     id="defs1420" />
  <sodipodi:namedview
     id="namedview1418"
     pagecolor="#ffffff"
     bordercolor="#000000"
     borderopacity="0.25"
     inkscape:showpageshadow="2"
     inkscape:pageopacity="0.0"
     inkscape:pagecheckerboard="0"
     inkscape:deskcolor="#d1d1d1"
     showgrid="false"
     inkscape:zoom="0.86865232"
     inkscape:cx="337.87972"
     inkscape:cy="340.75774"
     inkscape:window-width="1280"
     inkscape:window-height="971"
     inkscape:window-x="-8"
     inkscape:window-y="-8"
     inkscape:window-maximized="1"
     inkscape:current-layer="g1422" />
  <g
     inkscape:groupmode="layer"
     inkscape:label="Image"
     id="g1422">
    <g
       id="g1426">
      <path
         style="fill:#b9b9b9;fill-opacity:1;stroke-width:1.33333"
         d="m 518.4966,575.00002 c -1.65849,-2.11475 -1.61133,-2.16191 0.50342,-0.50341 2.221,1.74182 2.9273,2.83674 1.82992,2.83674 -0.27687,0 -1.32687,-1.05 -2.33334,-2.33333 z m -384.95274,-3 c 0,-1.83333 0.30264,-2.58333 0.67252,-1.66667 0.36988,0.91667 0.36988,2.41667 0,3.33334 -0.36988,0.91666 -0.67252,0.16666 -0.67252,-1.66667 z m 9.22808,-15.44444 c 0.064,-1.55327 0.37992,-1.8692 0.80554,-0.80556 0.38516,0.96249 0.3378,2.11251 -0.1052,2.55556 -0.44306,0.44305 -0.75818,-0.34445 -0.70029,-1.75 z m 456.97808,-76.13304 c 0.96249,-0.38516 2.11251,-0.3378 2.55556,0.1052 0.44305,0.44305 -0.34445,0.75818 -1.75,0.70029 -1.55327,-0.064 -1.8692,-0.37992 -0.80556,-0.80555 z M 132.10527,404.55557 c 0.064,-1.55326 0.37992,-1.8692 0.80555,-0.80556 0.38516,0.9625 0.3378,2.11251 -0.10526,2.55556 -0.44306,0.44306 -0.75819,-0.34445 -0.7003,-1.75 z m 30.66667,-2.66666 c 0.064,-1.55327 0.37992,-1.8692 0.80555,-0.80556 0.38516,0.96249 0.3378,2.1125 -0.1052,2.55556 -0.44307,0.44305 -0.75819,-0.34446 -0.7003,-1.75 z m 32.10525,-17.8889 c 0,-1.83333 0.30264,-2.58333 0.67252,-1.66666 0.36988,0.91666 0.36988,2.41666 0,3.33333 -0.36988,0.91667 -0.67252,0.16667 -0.67252,-1.66667 z m -9.89941,-20.16545 c 0.90445,-0.91123 1.98032,-1.32089 2.39084,-0.91037 0.41052,0.41052 -0.32948,1.15606 -1.64444,1.65677 -1.90027,0.72357 -2.05341,0.57043 -0.7464,-0.7464 z m 144.56608,-1.16788 c 0,-1.83333 0.30264,-2.58333 0.67252,-1.66667 0.36988,0.91667 0.36988,2.41667 0,3.33334 -0.36988,0.91666 -0.67252,0.16666 -0.67252,-1.66667 z m -208.46052,0.42252 c 0.9625,-0.38516 2.1125,-0.3378 2.55555,0.1052 0.44306,0.44305 -0.34444,0.75819 -1.75,0.70029 -1.55325,-0.064 -1.8692,-0.37992 -0.80555,-0.80554 z m 318.91668,-0.92593 c 0,-0.27687 1.05,-1.32687 2.33333,-2.33334 2.11475,-1.65849 2.16191,-1.61133 0.50341,0.50342 -1.74182,2.221 -2.83674,2.9273 -2.83674,1.82992 z M 296.10528,327.22224 c 0.064,-1.55327 0.37992,-1.8692 0.80554,-0.80556 0.38516,0.96249 0.3378,2.11249 -0.1052,2.55556 -0.44306,0.44305 -0.75818,-0.34446 -0.70029,-1.75 z m -41.60868,-8.22223 c -1.6585,-2.11475 -1.61134,-2.16191 0.50341,-0.50341 1.28333,1.00646 2.33333,2.05646 2.33333,2.33333 0,1.09739 -1.09492,0.39108 -2.83674,-1.82992 z m 220.84619,-8.31807 c -0.46712,-0.75581 0.0681,-0.97933 1.25464,-0.52401 2.30989,0.88639 2.73252,1.84208 0.81461,1.84208 -0.69005,0 -1.62122,-0.59313 -2.06925,-1.31807 z M 294.00001,282.66668 c 1.32732,-1.46667 2.71331,-2.66667 3.07997,-2.66667 0.36667,0 -0.41932,1.2 -1.74664,2.66667 -1.32732,1.46666 -2.7133,2.66666 -3.07997,2.66666 -0.36667,0 0.41932,-1.2 1.74664,-2.66666 z m 140.66667,-4.50342 c 0,-0.27686 1.05,-1.32686 2.33333,-2.33333 2.11475,-1.65849 2.16191,-1.61133 0.50342,0.50341 -1.74183,2.221 -2.83675,2.92731 -2.83675,1.82992 z m 75.02982,-4.82992 c 0,-3.3 0.26002,-4.65 0.57782,-3 0.31782,1.65 0.31782,4.35 0,6 -0.3178,1.65 -0.57782,0.3 -0.57782,-3 z m -206.36316,-1.33333 c -0.45322,-0.73333 -0.15322,-1.33333 0.66667,-1.33333 0.81989,0 1.0626,-0.69271 0.53935,-1.53935 -0.5761,-0.93213 -0.36714,-1.17827 0.52974,-0.62396 0.81462,0.50345 1.14312,1.79616 0.73003,2.87268 -0.88513,2.30661 -1.35272,2.42493 -2.46579,0.62396 z m 77.89909,-10.33333 -3.23242,-3.66667 3.66667,3.23241 c 3.42705,3.02119 4.27812,4.10092 3.23241,4.10092 -0.23882,0 -1.88882,-1.65 -3.66666,-3.66666 z m 67.10383,-19.66667 c 0.0148,-2.93334 0.28785,-3.97634 0.60677,-2.31779 0.31892,1.65855 0.30681,4.05855 -0.0269,5.33334 -0.33372,1.27478 -0.59467,-0.0823 -0.57987,-3.01555 z m -6.79239,-10 c 0,-1.83334 0.30264,-2.58334 0.67252,-1.66667 0.36988,0.91667 0.36988,2.41667 0,3.33333 -0.36988,0.91667 -0.67252,0.16667 -0.67252,-1.66666 z m -85.54386,-11.08388 c 0,-0.22947 1.95,-2.17947 4.33334,-4.33334 l 4.33333,-3.91612 -3.91612,4.33334 c -3.65037,4.03928 -4.75055,4.9462 -4.75055,3.91612 z m 125.87333,-9.24946 -2.53999,-3 3,2.53999 c 1.65,1.39699 3,2.74699 3,3 0,1.067 -1.07305,0.27927 -3.46001,-2.53999 z M 209.94518,134.57796 c -0.48337,-0.78212 -0.59291,-1.708 -0.2434,-2.0575 0.34949,-0.34951 0.99075,0.29041 1.425,1.42204 0.90157,2.34948 0.1332,2.76274 -1.1816,0.63546 z M 427.82993,55.000002 c -1.65849,-2.114742 -1.61133,-2.161902 0.50342,-0.503407 1.28333,1.006459 2.33333,2.056459 2.33333,2.333334 0,1.097378 -1.09492,0.39107 -2.83675,-1.829927 z"
         id="path1440" />
      <path
         style="fill:#a3a3a3;fill-opacity:1;stroke-width:1.33333"
         d="m 133.4386,576.55558 c 0.064,-1.55327 0.37992,-1.8692 0.80555,-0.80556 0.38516,0.96249 0.3378,2.11251 -0.1052,2.55556 -0.44307,0.44305 -0.75819,-0.34445 -0.70029,-1.75 z m 45.22807,-15.72564 c 0,-0.27687 1.05,-1.32687 2.33334,-2.33333 2.11474,-1.6585 2.1619,-1.61134 0.50341,0.50341 -1.74183,2.221 -2.83675,2.92731 -2.83675,1.82992 z m 86.66667,-69.33334 c 0,-0.27686 1.05,-1.32686 2.33334,-2.33333 2.11474,-1.65849 2.1619,-1.61133 0.50341,0.50341 -1.74183,2.221 -2.83675,2.92731 -2.83675,1.82992 z m 80.00001,-24.27433 c -2.2418,-1.24393 -2.62272,-1.85604 -1.16326,-1.86927 1.19354,-0.0107 2.917,0.88035 3.82992,1.98035 1.94704,2.34604 1.74643,2.33768 -2.66666,-0.11107 z m 110.56575,-20.22225 -3.23242,-3.66667 3.66667,3.23241 c 3.42705,3.02119 4.27812,4.10092 3.23241,4.10092 -0.23882,0 -1.88882,-1.65 -3.66666,-3.66666 z M 97.163263,408.33335 c -1.658494,-2.11475 -1.611334,-2.16191 0.503407,-0.50342 1.283333,1.00647 2.33333,2.05647 2.33333,2.33334 0,1.09738 -1.094911,0.39108 -2.836737,-1.82992 z m 54.942007,-1.11111 c 0.064,-1.55327 0.37992,-1.8692 0.80555,-0.80556 0.38516,0.96249 0.3378,2.11251 -0.1052,2.55556 -0.44307,0.44305 -0.75819,-0.34445 -0.70029,-1.75 z m 350.66668,-13.33333 c 0.064,-1.55327 0.37992,-1.8692 0.80555,-0.80556 0.38516,0.96249 0.3378,2.1125 -0.1052,2.55556 -0.44306,0.44305 -0.75819,-0.34446 -0.7003,-1.75 z M 329.43861,367.22224 c 0.064,-1.55327 0.37992,-1.8692 0.80555,-0.80556 0.38516,0.96249 0.3378,2.11251 -0.1052,2.55556 -0.44307,0.44305 -0.75819,-0.34445 -0.7003,-1.75 z m 222.31141,-1.46637 c 0.96249,-0.38516 2.11251,-0.3378 2.55556,0.1052 0.44305,0.44305 -0.34445,0.75818 -1.75,0.70029 -1.55327,-0.064 -1.8692,-0.37992 -0.80556,-0.80555 z m 53.58333,-0.92594 c 0,-0.27686 1.05,-1.32686 2.33334,-2.33333 2.11474,-1.65849 2.1619,-1.61133 0.50341,0.50341 -1.74183,2.221 -2.83675,2.92731 -2.83675,1.82992 z m -364.17009,-7.16325 c -1.65849,-2.11475 -1.61133,-2.16191 0.50341,-0.50341 2.22101,1.74182 2.92731,2.83674 1.82992,2.83674 -0.27686,0 -1.32686,-1.05 -2.33333,-2.33333 z m 88.47942,-1.66667 c 0,-2.56666 0.2744,-3.61666 0.60977,-2.33333 0.33536,1.28333 0.33536,3.38333 0,4.66667 -0.33537,1.28333 -0.60977,0.23333 -0.60977,-2.33334 z m 15.90119,-2.66666 c 0,-1.83334 0.30264,-2.58334 0.67252,-1.66667 0.36988,0.91667 0.36988,2.41667 0,3.33333 -0.36988,0.91667 -0.67252,0.16667 -0.67252,-1.66666 z m 19.78948,-36.00001 c 0,-0.73333 0.63541,-1.33333 1.41202,-1.33333 0.77662,0 1.0412,0.6 0.58798,1.33333 -0.45323,0.73334 -1.08864,1.33334 -1.41203,1.33334 -0.32339,0 -0.58797,-0.6 -0.58797,-1.33334 z m 113.33333,-30 c 1.72234,-1.83333 3.43151,-3.33333 3.79818,-3.33333 0.36666,0 -0.74251,1.5 -2.46484,3.33333 -1.72234,1.83334 -3.43151,3.33334 -3.79818,3.33334 -0.36666,0 0.74251,-1.5 2.46484,-3.33334 z m -229.50342,-27 c -1.65849,-2.11474 -1.61133,-2.1619 0.50342,-0.50341 1.28333,1.00647 2.33333,2.05647 2.33333,2.33333 0,1.09739 -1.09492,0.39108 -2.83675,-1.82992 z m -25.05799,-7.77777 c 0.064,-1.55327 0.37992,-1.8692 0.80555,-0.80556 0.38516,0.96249 0.3378,2.11249 -0.1052,2.55556 -0.44307,0.44305 -0.75819,-0.34445 -0.70029,-1.75 z m -61.10236,-11.8889 c 0.0148,-2.93333 0.28786,-3.97633 0.60678,-2.31778 0.31892,1.65854 0.30681,4.05854 -0.0269,5.33333 -0.33372,1.27479 -0.59466,-0.0823 -0.57986,-3.01555 z m 141.10237,-41.44444 c 0.064,-1.55326 0.37992,-1.8692 0.80554,-0.80556 0.38516,0.9625 0.3378,2.1125 -0.1052,2.55556 -0.44306,0.44306 -0.75818,-0.34445 -0.70029,-1.75 z"
         id="path1438" />
      <path
         style="fill:#8c8c8c;fill-opacity:1;stroke-width:1.33333"
         d="m 559.04803,659.33336 c 0.0107,-3.66667 0.26896,-5.00842 0.57543,-2.98167 0.30648,2.02675 0.29828,5.02675 -0.0181,6.66667 -0.31648,1.63992 -0.56723,-0.0184 -0.55723,-3.685 z m 21.16251,-43.33334 c 0,-1.83333 0.30264,-2.58333 0.67252,-1.66667 0.36988,0.91667 0.36988,2.41667 0,3.33334 -0.36988,0.91666 -0.67252,0.16666 -0.67252,-1.66667 z M 328.10528,604.55558 c 0.064,-1.55327 0.37992,-1.8692 0.80554,-0.80556 0.38516,0.96249 0.3378,2.11251 -0.1052,2.55556 -0.44306,0.44305 -0.75818,-0.34445 -0.70029,-1.75 z m 17.488,-2.55556 c 0.0272,-2.2 0.326,-2.93859 0.66405,-1.64129 0.33806,1.29729 0.31583,3.09729 -0.0495,4 -0.36524,0.9027 -0.64183,-0.15871 -0.61466,-2.35871 z m -182.25994,-106 c 1.32732,-1.46667 2.71331,-2.66667 3.07997,-2.66667 0.36667,0 -0.41932,1.2 -1.74664,2.66667 -1.32732,1.46666 -2.7133,2.66666 -3.07997,2.66666 -0.36667,0 0.41932,-1.2 1.74664,-2.66666 z m 163.33334,-21.83675 c 0,-0.27687 1.05,-1.32687 2.33333,-2.33333 2.11475,-1.6585 2.16191,-1.61134 0.50341,0.50341 -1.74182,2.221 -2.83674,2.92731 -2.83674,1.82992 z m 240.53999,-11.82992 -2.53998,-3 3,2.53999 c 2.81925,2.38696 3.60698,3.46001 2.53998,3.46001 -0.25301,0 -1.60301,-1.35 -3,-3 z m -373.76806,-9.77777 c 0.064,-1.55327 0.37992,-1.8692 0.80554,-0.80556 0.38516,0.96249 0.3378,2.1125 -0.1052,2.55556 -0.44306,0.44305 -0.75818,-0.34446 -0.70029,-1.75 z M 87.750003,437.75587 c 0.9625,-0.38516 2.1125,-0.3378 2.555556,0.1052 0.443055,0.44305 -0.344445,0.75818 -1.75,0.70029 -1.553257,-0.064 -1.8692,-0.37992 -0.805556,-0.80555 z m 44.355267,-27.86696 c 0.064,-1.55327 0.37992,-1.8692 0.80555,-0.80556 0.38516,0.96249 0.3378,2.1125 -0.10526,2.55556 -0.44306,0.44305 -0.75819,-0.34446 -0.7003,-1.75 z m -10.41322,-32.14622 c 1.29729,-0.33805 3.09729,-0.31582 4,0.0495 0.90271,0.36524 -0.15871,0.64183 -2.35871,0.61465 -2.2,-0.0272 -2.93858,-0.326 -1.64129,-0.66405 z m -45.152063,-16.74268 -2.539984,-3 3,2.53999 c 2.81926,2.38696 3.606988,3.46001 2.539984,3.46001 -0.25301,0 -1.60301,-1.35 -3,-3 z m 295.460023,0.25464 c 0,-0.77661 0.6,-1.0412 1.33334,-0.58797 0.73333,0.45323 1.33333,1.08864 1.33333,1.41203 0,0.32338 -0.6,0.58797 -1.33333,0.58797 -0.73334,0 -1.33334,-0.63541 -1.33334,-1.41203 z M 250.05696,316.09214 c -0.42192,-0.68266 -0.25732,-1.55626 0.36574,-1.94134 0.62308,-0.38508 1.13287,0.17345 1.13287,1.2412 0,2.24822 -0.42045,2.44465 -1.49861,0.70014 z m 220.60972,-20.7588 c 2.48771,-2.56666 4.82311,-4.66666 5.18978,-4.66666 0.36666,0 -1.36874,2.1 -3.85644,4.66666 -2.48771,2.56667 -4.82311,4.66667 -5.18978,4.66667 -0.36666,0 1.36874,-2.1 3.85644,-4.66667 z m -37.22807,-24.1111 c 0.064,-1.55327 0.37992,-1.8692 0.80555,-0.80556 0.38516,0.96249 0.3378,2.11249 -0.1052,2.55556 -0.44305,0.44305 -0.75819,-0.34446 -0.70029,-1.75 z m -130.77193,-6.39231 c 0,-0.27687 1.05,-1.32687 2.33333,-2.33333 2.11475,-1.6585 2.16191,-1.61134 0.50341,0.50341 -1.74182,2.221 -2.83674,2.92731 -2.83674,1.82992 z m 145.4386,-14.94103 c 0.064,-1.55326 0.37992,-1.8692 0.80555,-0.80556 0.38516,0.9625 0.3378,2.1125 -0.1052,2.55556 -0.44305,0.44306 -0.75819,-0.34445 -0.70029,-1.75 z m 31.64474,-1.46637 c 0.96249,-0.38516 2.1125,-0.3378 2.55556,0.1052 0.44305,0.44305 -0.34446,0.75819 -1.75,0.70029 -1.55327,-0.064 -1.8692,-0.37992 -0.80556,-0.80554 z m -38.41667,-35.5926 c 0,-0.27687 1.05,-1.32687 2.33333,-2.33334 2.11475,-1.65849 2.16191,-1.61133 0.50342,0.50342 -1.74183,2.221 -2.83675,2.9273 -2.83675,1.82992 z m 1.71468,-54.82992 c 0.0107,-3.66667 0.26896,-5.00842 0.57543,-2.98167 0.30648,2.02675 0.29828,5.02675 -0.0181,6.66667 -0.31648,1.63992 -0.56722,-0.0184 -0.55722,-3.685 z m -89.60942,2.55556 c 0.064,-1.55327 0.37992,-1.8692 0.80555,-0.80556 0.38516,0.96249 0.3378,2.11249 -0.1052,2.55556 -0.44305,0.44305 -0.75819,-0.34446 -0.70029,-1.75 z m -146.77194,-7.30092 c 0,-0.77662 0.6,-1.0412 1.33334,-0.58798 0.73333,0.45323 1.33333,1.08864 1.33333,1.41203 0,0.32339 -0.6,0.58797 -1.33333,0.58797 -0.73334,0 -1.33334,-0.63541 -1.33334,-1.41202 z M 328.00001,95.496597 c 0,-0.276875 1.05,-1.326875 2.33333,-2.333334 2.11475,-1.658495 2.16191,-1.611335 0.50342,0.503407 -1.74183,2.220997 -2.83675,2.927305 -2.83675,1.829927 z"
         id="path1436" />
      <path
         style="fill:#767676;fill-opacity:1;stroke-width:1.33333"
         d="m 125.73289,657.33336 c 0,-4.03334 0.24995,-5.68334 0.55545,-3.66667 0.3055,2.01667 0.3055,5.31667 0,7.33333 -0.3055,2.01667 -0.55545,0.36667 -0.55545,-3.66666 z m 237.19372,-92.66667 c 0.0272,-2.2 0.326,-2.93859 0.66406,-1.6413 0.33805,1.2973 0.31582,3.0973 -0.0495,4 -0.36524,0.90271 -0.64183,-0.1587 -0.61465,-2.3587 z M 149.54386,541.33335 c 0,-1.83333 0.30264,-2.58333 0.67252,-1.66666 0.36988,0.91666 0.36988,2.41666 0,3.33333 -0.36988,0.91667 -0.67252,0.16667 -0.67252,-1.66667 z m 237.27749,-30.33333 c -0.0851,-3.85 0.32485,-7 0.91093,-7 0.58608,0 0.85149,2.25 0.58981,5 -0.81597,8.57482 -1.34004,9.27324 -1.50074,2 z M 22.666667,499.4966 c 0,-0.27686 1.05,-1.32686 2.333334,-2.33333 2.114741,-1.65849 2.161901,-1.61133 0.503407,0.50341 -1.741826,2.221 -2.836741,2.92731 -2.836741,1.82992 z M 245.59328,480.66668 c 0.0272,-2.2 0.326,-2.93858 0.66405,-1.64129 0.33805,1.29729 0.31583,3.09729 -0.0495,4 -0.36524,0.90271 -0.64182,-0.15871 -0.61465,-2.35871 z m 21.33333,-17.33333 c 0.0272,-2.2 0.326,-2.93859 0.66405,-1.64129 0.33806,1.29729 0.31583,3.09729 -0.0495,4 -0.36524,0.9027 -0.64183,-0.15871 -0.61466,-2.35871 z m -56,-18.66667 c 0.0272,-2.2 0.326,-2.93858 0.66405,-1.64129 0.33805,1.29729 0.31583,3.09729 -0.0495,4 -0.36524,0.90271 -0.64182,-0.15871 -0.61465,-2.35871 z m 285.28393,-0.66666 c 0,-1.83334 0.30264,-2.58334 0.67252,-1.66667 0.36988,0.91667 0.36988,2.41667 0,3.33333 -0.36988,0.91667 -0.67252,0.16667 -0.67252,-1.66666 z m -104.10526,-4.77778 c 0.064,-1.55327 0.37992,-1.8692 0.80555,-0.80556 0.38516,0.9625 0.3378,2.11251 -0.1052,2.55556 -0.44306,0.44306 -0.75819,-0.34445 -0.7003,-1.75 z m 203.64474,-0.13306 c 0.96249,-0.38517 2.11251,-0.33781 2.55556,0.1052 0.44305,0.44305 -0.34445,0.75818 -1.75,0.70029 -1.55327,-0.064 -1.8692,-0.37992 -0.80556,-0.80555 z M 171.11111,412.72531 c 0,-1.06775 0.50979,-1.62628 1.13287,-1.2412 0.62307,0.38508 0.78767,1.25868 0.36575,1.94134 -1.07816,1.74451 -1.49862,1.54808 -1.49862,-0.70014 z m 281.09943,-0.7253 c 0,-1.83333 0.30264,-2.58333 0.67252,-1.66666 0.36988,0.91666 0.36988,2.41666 0,3.33333 -0.36988,0.91667 -0.67252,0.16667 -0.67252,-1.66667 z m 79.89474,-3.44444 c 0.064,-1.55326 0.37992,-1.8692 0.80555,-0.80556 0.38516,0.9625 0.3378,2.11251 -0.1052,2.55556 -0.44305,0.44306 -0.75819,-0.34445 -0.70029,-1.75 z m 30.22807,-29.4386 c 0.91667,-0.36988 2.41667,-0.36988 3.33334,0 0.91666,0.36988 0.16666,0.67252 -1.66667,0.67252 -1.83333,0 -2.58333,-0.30264 -1.66667,-0.67252 z m 75.33625,-30.45029 c 0.0148,-2.93333 0.28785,-3.97633 0.60677,-2.31779 0.31892,1.65855 0.30681,4.05855 -0.0269,5.33334 -0.33372,1.27478 -0.59467,-0.0823 -0.57987,-3.01555 z M 344.10528,332.55557 c 0.064,-1.55327 0.37992,-1.8692 0.80555,-0.80556 0.38516,0.96249 0.3378,2.11249 -0.1052,2.55556 -0.44306,0.44305 -0.75819,-0.34445 -0.7003,-1.75 z m 75.37885,-8.79953 c 0.38508,-0.62307 1.25868,-0.78767 1.94135,-0.36575 1.74451,1.07816 1.54808,1.49861 -0.70015,1.49861 -1.06774,0 -1.62628,-0.50978 -1.2412,-1.13286 z m -40.88922,-38.08936 -4.5949,-5 5,4.59489 c 2.75,2.52719 5,4.77719 5,5 0,1.01816 -1.12829,0.0591 -5.4051,-4.59489 z m -203.92824,2.41202 c 0,-0.69005 0.59314,-1.62122 1.31807,-2.06925 0.75581,-0.46712 0.97933,0.0681 0.52401,1.25464 -0.88638,2.30989 -1.84208,2.73252 -1.84208,0.81461 z m 138.66667,0.0787 c 0,-0.73333 0.6,-1.70415 1.33334,-2.15737 0.73333,-0.45323 1.33333,-0.22404 1.33333,0.50929 0,0.73333 -0.6,1.70415 -1.33333,2.15737 -0.73334,0.45323 -1.33334,0.22404 -1.33334,-0.50929 z m -55.32389,-17.50596 c 0.44803,-0.72493 0.0792,-1.31807 -0.81964,-1.31807 -0.89884,0 -1.27924,-0.355 -0.84536,-0.78888 0.43389,-0.43389 1.79956,-0.22329 3.03484,0.468 2.08531,1.167 2.08751,1.31771 0.0308,2.10695 -1.30164,0.49949 -1.87925,0.30648 -1.40059,-0.468 z m 202.20109,-117.3181 c 0,-1.83333 0.30264,-2.58333 0.67252,-1.66667 0.36988,0.91667 0.36988,2.41667 0,3.33334 -0.36988,0.91666 -0.67252,0.16666 -0.67252,-1.66667 z m -17.23452,-5.33333 c 0,-2.56667 0.2744,-3.61667 0.60977,-2.33334 0.33536,1.28334 0.33536,3.38334 0,4.66667 -0.33537,1.28333 -0.60977,0.23333 -0.60977,-2.33333 z M 222.77194,120.55556 c 0.064,-1.55326 0.37992,-1.8692 0.80555,-0.80556 0.38516,0.9625 0.3378,2.1125 -0.1052,2.55556 -0.44307,0.44305 -0.75819,-0.34445 -0.7003,-1.75 z m 204.43473,-84.888892 -2.53999,-3 3,2.539984 c 1.65,1.396991 3,2.746991 3,3 0,1.067004 -1.07305,0.279276 -3.46001,-2.539984 z"
         id="path1434" />
      <path
         style="fill:#606060;fill-opacity:1;stroke-width:1.33333"
         d="m 152.66667,586.66669 c 1.32732,-1.46667 2.71331,-2.66667 3.07998,-2.66667 0.36666,0 -0.41932,1.2 -1.74664,2.66667 -1.32732,1.46666 -2.71331,2.66666 -3.07998,2.66666 -0.36666,0 0.41932,-1.2 1.74664,-2.66666 z m 12,-13.33334 c 1.32732,-1.46666 2.71331,-2.66666 3.07998,-2.66666 0.36666,0 -0.41932,1.2 -1.74664,2.66666 -1.32732,1.46667 -2.71331,2.66667 -3.07998,2.66667 -0.36666,0 0.41932,-1.2 1.74664,-2.66667 z M 337.33334,507.4966 c 0,-0.27686 1.05,-1.32686 2.33334,-2.33333 2.11475,-1.65849 2.16191,-1.61133 0.50341,0.50341 -1.74183,2.221 -2.83675,2.92731 -2.83675,1.82992 z M 520.54,497.00002 l -2.53998,-3 3,2.53998 c 1.65,1.39699 3,2.74699 3,3 0,1.067 -1.07306,0.27927 -3.46002,-2.53998 z M 244.97496,474.77356 c -0.57996,-2.2178 -0.40644,-2.73837 0.58298,-1.74894 0.7748,0.7748 1.14639,2.19576 0.82575,3.15768 -0.33287,0.9986 -0.93725,0.3942 -1.40873,-1.40874 z m 376.02506,-10.32325 c 0.91667,-0.36988 2.41667,-0.36988 3.33333,0 0.91667,0.36988 0.16667,0.67252 -1.66666,0.67252 -1.83334,0 -2.58334,-0.30264 -1.66667,-0.67252 z M 462.4966,453.66668 c -1.65849,-2.11474 -1.61133,-2.1619 0.50342,-0.50341 2.221,1.74183 2.9273,2.83675 1.82992,2.83675 -0.27687,0 -1.32687,-1.05 -2.33334,-2.33334 z m -70.39132,-10.44444 c 0.064,-1.55326 0.37992,-1.8692 0.80555,-0.80556 0.38516,0.9625 0.3378,2.11251 -0.1052,2.55556 -0.44306,0.44306 -0.75819,-0.34445 -0.7003,-1.75 z m 55.72466,-5.55556 c -1.6585,-2.11475 -1.61134,-2.16191 0.50341,-0.50341 1.28333,1.00646 2.33333,2.05647 2.33333,2.33333 0,1.09739 -1.09492,0.39108 -2.83674,-1.82992 z M 220.10527,425.88891 c 0.064,-1.55327 0.37992,-1.8692 0.80555,-0.80556 0.38516,0.96249 0.3378,2.1125 -0.1052,2.55556 -0.44307,0.44305 -0.75819,-0.34446 -0.70029,-1.75 z M 85.083336,424.42253 c 0.9625,-0.38516 2.1125,-0.3378 2.555556,0.1052 0.443055,0.44306 -0.344445,0.75819 -1.75,0.7003 -1.553257,-0.064 -1.8692,-0.37992 -0.805556,-0.80555 z m 236.355274,-7.86696 c 0.064,-1.55326 0.37992,-1.8692 0.80555,-0.80556 0.38516,0.9625 0.3378,2.11251 -0.1052,2.55556 -0.44307,0.44306 -0.75819,-0.34445 -0.7003,-1.75 z m 122.20302,-0.66244 c 0.47148,-1.80293 1.07587,-2.40733 1.40873,-1.40873 0.32064,0.96192 -0.0509,2.38288 -0.82574,3.15768 -0.98943,0.98943 -1.16295,0.46885 -0.58299,-1.74895 z m 108.46366,-4.67089 c 0.064,-1.55327 0.37992,-1.8692 0.80554,-0.80556 0.38516,0.96249 0.3378,2.11251 -0.1052,2.55556 -0.44305,0.44305 -0.75818,-0.34445 -0.70029,-1.75 z m 5.33333,-6.66667 c 0.064,-1.55326 0.37992,-1.8692 0.80555,-0.80556 0.38516,0.9625 0.3378,2.11251 -0.1052,2.55556 -0.44306,0.44306 -0.75819,-0.34445 -0.7003,-1.75 z M 145.4386,401.88891 c 0.064,-1.55327 0.37992,-1.8692 0.80555,-0.80556 0.38516,0.96249 0.3378,2.1125 -0.1052,2.55556 -0.44307,0.44305 -0.75819,-0.34446 -0.70029,-1.75 z m 292.20408,-25.8889 c 0,-2.56666 0.2744,-3.61666 0.60977,-2.33333 0.33536,1.28333 0.33536,3.38333 0,4.66667 -0.33537,1.28333 -0.60977,0.23333 -0.60977,-2.33334 z m -89.99823,-17.49878 c 0.90446,-0.91123 1.98032,-1.3209 2.39084,-0.91038 0.41052,0.41052 -0.32948,1.15607 -1.64444,1.65678 -1.90026,0.72357 -2.05341,0.57042 -0.7464,-0.7464 z m -52.12661,-24.50122 c -0.42211,-1.1 -0.1863,-2 0.52401,-2 0.71032,0 1.29149,0.9 1.29149,2 0,1.1 -0.23581,2 -0.52401,2 -0.28821,0 -0.86937,-0.9 -1.29149,-2 z m 161.81551,-25.19068 c 0,-0.28821 0.93116,-0.88133 2.06925,-1.31807 1.18656,-0.45532 1.72176,-0.2318 1.25464,0.52402 -0.78301,1.26694 -3.32389,1.87393 -3.32389,0.79405 z m -89.99056,-7.46072 c -0.46712,-0.75581 0.0681,-0.97933 1.25464,-0.52401 2.30989,0.88638 2.73252,1.84208 0.81461,1.84208 -0.69005,0 -1.62123,-0.59314 -2.06925,-1.31807 z M 245.98657,274.64493 c -0.46061,-0.74529 -1.48873,-0.95259 -2.28471,-0.46065 -0.88461,0.54672 -1.06181,0.27084 -0.45583,-0.70967 0.75913,-1.22829 1.43213,-1.23831 2.87269,-0.0428 1.88692,1.566 2.3916,2.56815 1.29332,2.56815 -0.32339,0 -0.96486,-0.60979 -1.42547,-1.35508 z M 217.43861,245.8889 c 0.064,-1.55326 0.37992,-1.8692 0.80554,-0.80556 0.38516,0.9625 0.3378,2.1125 -0.1052,2.55556 -0.44306,0.44306 -0.75818,-0.34445 -0.70029,-1.75 z m 220.97807,-74.79971 c 0.9625,-0.38516 2.11251,-0.3378 2.55556,0.1052 0.44306,0.44306 -0.34445,0.75819 -1.75,0.7003 -1.55327,-0.064 -1.8692,-0.37992 -0.80556,-0.80555 z M 307.39029,120.09213 c -0.42192,-0.68266 -0.15732,-1.61807 0.58797,-2.07868 0.7453,-0.46062 1.35508,0.0979 1.35508,1.2412 0,2.34203 -0.80008,2.68688 -1.94305,0.83748 z"
         id="path1432" />
      <path
         style="fill:#494949;fill-opacity:1;stroke-width:1.33333"
         d="m 330.00001,660.00002 c 1.32732,-1.46666 2.71331,-2.66666 3.07997,-2.66666 0.36667,0 -0.41932,1.2 -1.74664,2.66666 -1.32732,1.46667 -2.7133,2.66667 -3.07997,2.66667 -0.36667,0 0.41932,-1.2 1.74664,-2.66667 z M 104.21053,614.66669 c 0,-1.83334 0.30263,-2.58334 0.67251,-1.66667 0.36989,0.91667 0.36989,2.41667 0,3.33333 -0.36988,0.91667 -0.67251,0.16667 -0.67251,-1.66666 z m 437.33334,-44 c 0,-1.83334 0.30264,-2.58334 0.67252,-1.66667 0.36988,0.91667 0.36988,2.41667 0,3.33333 -0.36988,0.91667 -0.67252,0.16667 -0.67252,-1.66666 z M 368.10528,537.88891 c 0.064,-1.55327 0.37992,-1.8692 0.80555,-0.80556 0.38516,0.9625 0.3378,2.11251 -0.1052,2.55556 -0.44306,0.44306 -0.75819,-0.34445 -0.7003,-1.75 z m 98.46048,-17.55556 -3.23241,-3.66667 3.66667,3.23242 c 3.42705,3.02118 4.27812,4.10092 3.23241,4.10092 -0.23883,0 -1.88883,-1.65 -3.66667,-3.66667 z m 193.33334,-21.33333 -3.23241,-3.66667 3.66667,3.23241 c 3.42705,3.02119 4.27812,4.10092 3.23241,4.10092 -0.23883,0 -1.88883,-1.65 -3.66667,-3.66666 z M 61.000002,463.11698 c 0.916667,-0.36988 2.416667,-0.36988 3.333334,0 0.916666,0.36988 0.166666,0.67252 -1.666667,0.67252 -1.833334,0 -2.583334,-0.30264 -1.666667,-0.67252 z M 116,462.16327 c 0,-0.27687 1.05,-1.32687 2.33334,-2.33333 2.11474,-1.6585 2.1619,-1.61134 0.5034,0.50341 -1.74182,2.221 -2.83674,2.92731 -2.83674,1.82992 z m 276.10528,-14.94103 c 0.064,-1.55326 0.37992,-1.8692 0.80555,-0.80556 0.38516,0.9625 0.3378,2.11251 -0.1052,2.55556 -0.44306,0.44306 -0.75819,-0.34445 -0.7003,-1.75 z m -204.00001,-5.33333 c 0.064,-1.55327 0.37992,-1.8692 0.80555,-0.80556 0.38516,0.96249 0.3378,2.11251 -0.1052,2.55556 -0.44307,0.44305 -0.75819,-0.34445 -0.70029,-1.75 z m 189.33334,-13.33334 c 0.064,-1.55326 0.37992,-1.8692 0.80555,-0.80556 0.38516,0.9625 0.3378,2.11251 -0.1052,2.55556 -0.44305,0.44306 -0.75819,-0.34445 -0.70029,-1.75 z m -69.33333,-6.66666 c 0.064,-1.55327 0.37992,-1.8692 0.80554,-0.80556 0.38516,0.96249 0.3378,2.1125 -0.1052,2.55556 -0.44306,0.44305 -0.75818,-0.34446 -0.70029,-1.75 z m 135.22807,-3.22223 c 0.45323,-0.73333 1.08864,-1.33333 1.41203,-1.33333 0.32338,0 0.58797,0.6 0.58797,1.33333 0,0.73333 -0.63541,1.33333 -1.41203,1.33333 -0.77661,0 -1.0412,-0.6 -0.58797,-1.33333 z m -211.02401,-6.66667 c 0,-2.56666 0.2744,-3.61666 0.60977,-2.33333 0.33536,1.28333 0.33536,3.38333 0,4.66667 -0.33537,1.28333 -0.60977,0.23333 -0.60977,-2.33334 z m 242.89733,-12.33333 -2.53999,-3 3,2.53999 c 2.81926,2.38696 3.60699,3.46001 2.53999,3.46001 -0.25301,0 -1.60301,-1.35 -3,-3 z m -33.87332,-18.83675 c 0,-0.27686 1.05,-1.32686 2.33333,-2.33333 2.11475,-1.65849 2.16191,-1.61133 0.50342,0.50341 -1.74183,2.221 -2.83675,2.92731 -2.83675,1.82992 z m -302.91668,-4.4074 c 0.96249,-0.38516 2.11249,-0.3378 2.55556,0.1052 0.44305,0.44306 -0.34445,0.75819 -1.75,0.7003 -1.55327,-0.064 -1.8692,-0.37992 -0.80556,-0.80555 z m 45.41326,-64.08919 c -1.6585,-2.11474 -1.61134,-2.1619 0.50341,-0.50341 1.28333,1.00647 2.33333,2.05647 2.33333,2.33333 0,1.09739 -1.09492,0.39108 -2.83674,-1.82992 z m 433.81276,-4.33333 c 0,-2.56667 0.2744,-3.61667 0.60977,-2.33333 0.33536,1.28333 0.33536,3.38333 0,4.66666 -0.33537,1.28334 -0.60977,0.23334 -0.60977,-2.33333 z M 172.10527,263.22224 c 0.064,-1.55327 0.37992,-1.8692 0.80555,-0.80556 0.38516,0.96249 0.3378,2.11249 -0.1052,2.55556 -0.44307,0.44305 -0.75819,-0.34446 -0.70029,-1.75 z m 3.02151,-14.61307 c -0.43425,-1.13163 -0.49163,-2.35543 -0.12747,-2.71955 0.36412,-0.36413 0.98208,0.56175 1.37323,2.05751 0.83087,3.17724 -0.0923,3.66785 -1.24573,0.66204 z m 152.15174,-15.36454 c -0.48338,-0.78212 -0.59291,-1.708 -0.2434,-2.0575 0.34949,-0.34951 0.99074,0.29041 1.425,1.42204 0.90157,2.34948 0.1332,2.76274 -1.1816,0.63546 z M 213.33334,221.25465 c 0,-0.77662 0.6,-1.0412 1.33333,-0.58798 0.73334,0.45323 1.33334,1.08864 1.33334,1.41203 0,0.32339 -0.6,0.58797 -1.33334,0.58797 -0.73333,0 -1.33333,-0.63541 -1.33333,-1.41202 z m -0.66667,-51.92131 c 0.45323,-0.73333 1.08864,-1.33333 1.41203,-1.33333 0.32339,0 0.58797,0.6 0.58797,1.33333 0,0.73333 -0.63541,1.33333 -1.41202,1.33333 -0.77662,0 -1.0412,-0.6 -0.58798,-1.33333 z m 260.77195,-3.44444 c 0.064,-1.55327 0.37992,-1.8692 0.80554,-0.80556 0.38516,0.96249 0.3378,2.11249 -0.1052,2.55556 -0.44305,0.44305 -0.75818,-0.34445 -0.70029,-1.75 z m -154.46261,-8.55556 c 0,-2.56667 0.2744,-3.61667 0.60977,-2.33333 0.33536,1.28333 0.33536,3.38333 0,4.66666 -0.33537,1.28334 -0.60977,0.23334 -0.60977,-2.33333 z M 449.33335,103.4966 c 0,-0.27688 1.05,-1.32688 2.33333,-2.33334 2.11475,-1.658491 2.16191,-1.611331 0.50342,0.50341 -1.74183,2.221 -2.83675,2.92731 -2.83675,1.82993 z m -7.89473,-5.607707 c 0.064,-1.553258 0.37992,-1.8692 0.80554,-0.805556 0.38516,0.9625 0.3378,2.1125 -0.1052,2.555556 -0.44305,0.443057 -0.75818,-0.344446 -0.70029,-1.75 z M 338.33334,1.7836258 c 0.91667,-0.3698831 2.41667,-0.3698831 3.33334,0 0.91667,0.3698831 0.16667,0.6725147 -1.66667,0.6725147 -1.83333,0 -2.58333,-0.3026316 -1.66667,-0.6725147 z"
         id="path1430" />
      <path
         style="fill:#333333;fill-opacity:1;stroke-width:1.33333"
         d="m 562.76202,680.78156 c -0.90873,-1.09496 -2.13257,-9.18016 -2.78667,-18.41004 -1.18812,-16.76531 -6.29966,-41.93022 -9.95132,-48.99171 -7.50068,-14.50475 -27.74179,-37.30292 -41.26557,-46.47871 -5.59418,-3.79559 -10.50142,-6.90108 -10.90498,-6.90108 -0.40357,0 -7.73569,-3.51773 -16.29361,-7.81719 -8.55792,-4.29946 -17.05985,-8.26642 -18.89319,-8.81549 -15.0506,-4.50749 -47.00612,-20.8662 -66.92684,-34.2613 -4.17643,-2.80832 -7.92643,-5.10602 -8.33333,-5.10602 -0.40691,0 -0.73983,3.86926 -0.73983,8.59837 0,9.78488 -3.14551,35.34412 -6.1308,49.8166 -3.98975,19.34202 -21.08339,57.97798 -35.72419,80.74571 -5.03491,7.82972 -23.82851,26.17266 -26.81569,26.17266 -2.96058,0 -2.53591,-2.19815 3.50553,-18.14499 5.40725,-14.27285 5.52468,-14.94841 6.85365,-39.42687 1.15808,-21.33067 1.0284,-27.16736 -0.9035,-40.66667 -3.65606,-25.54702 -6.66727,-35.05241 -18.39131,-58.05527 -9.45499,-18.5509 -11.00107,-20.87728 -12.90135,-19.41245 -1.18745,0.91533 -5.29986,4.28877 -9.13868,7.49652 -3.83882,3.20773 -11.33882,8.08643 -16.66666,10.84153 -5.32786,2.75511 -12.687,6.56839 -16.35367,8.47398 -7.05379,3.66586 -20.72044,10.01486 -42.66667,19.82125 -7.33333,3.27682 -17.39623,8.81415 -22.36199,12.30519 -11.9765,8.41975 -36.49466,33.26551 -44.2848,44.87649 -11.25959,16.78215 -17.60554,37.31187 -19.3373,62.55795 -1.13488,16.54446 -1.96326,20 -4.79449,20 -6.97529,0 -15.27473,-38.07388 -15.54942,-71.33333 -0.10908,-13.20691 0.55871,-20.66622 2.80509,-31.33334 3.83493,-18.21046 10.20592,-38.7614 14.90965,-48.09412 4.66415,-9.25419 18.72544,-30.38745 22.47868,-33.78409 3.81515,-3.45267 3.53653,-4.43583 -1.53209,-5.40608 -2.38333,-0.45623 -9.43333,-1.9612 -15.66667,-3.34438 -29.796599,-6.61188 -41.778017,-8.30949 -51.967457,-7.36317 -16.347373,1.51823 -29.556749,4.4748 -37.316055,8.3522 -8.23649,4.11585 -20.529021,15.5154 -25.850893,23.97297 -3.7548507,5.96724 -7.2668491,7.1996 -10.2554008,3.59863 -3.7111426,-4.47165 7.1922412,-38.64692 17.0823828,-53.54255 5.193976,-7.82269 24.539969,-24.63788 32.072646,-27.87696 6.85826,-2.94908 27.705046,-8.50832 31.997664,-8.53287 7.283596,-0.0416 7.202089,-1.88012 -0.373304,-8.42022 -12.571781,-10.8537 -25.630392,-30.06544 -32.273328,-47.48034 -7.441131,-19.50741 -2.4586,-52.50669 9.9232,-65.72131 4.441283,-4.74001 6.960547,-2.8645 6.960547,5.18188 0,6.25815 5.528639,21.91379 11.683522,33.08467 4.34092,7.87862 8.76118,11.06592 23.371826,16.85274 15.84423,6.27538 31.31896,6.88694 46.64962,1.8436 13.12488,-4.31771 25.1492,-11.29192 29.46565,-17.09035 1.732,-2.32664 4.6624,-8.05998 6.51201,-12.74076 4.31434,-10.91818 3.36844,-14.50543 -6.03468,-22.8863 -11.97726,-10.67516 -14.40992,-15.261 -16.25772,-30.64765 -1.12398,-9.35943 -1.23952,-17.33875 -0.3816,-26.35612 1.7333,-18.21831 1.64976,-17.98055 7.5998,-21.63328 4.11192,-2.52431 5.70087,-4.55247 6.76331,-8.63282 0.76377,-2.93333 2.26759,-7.75338 3.34181,-10.71124 1.07422,-2.95785 1.95312,-6.4365 1.95312,-7.73033 0,-1.29384 1.50554,-3.74771 3.34563,-5.45304 2.89216,-2.68037 3.61068,-5.15659 5.30129,-18.26967 3.7373,-28.988 5.89083,-43.21837 7.8445,-51.83572 1.08066,-4.76667 2.93886,-14.01022 4.12934,-20.54124 2.15207,-11.806373 3.2314,-14.62395 15.37094,-40.125428 11.69397,-24.565513 33.83877,-43.469415 60.90109,-51.988218 6.47564,-2.03843 14.18099,-4.8093368 17.12302,-6.1575708 2.94202,-1.348234 9.84202,-3.4670808 15.33333,-4.7085483 8.73533,-1.974873 12.35076,-2.0713511 28.90399,-0.7713082 13.78564,1.0826852 20.54987,2.2285012 24.92684,4.2224413 3.30389,1.5050945 7.08999,2.7419015 8.41356,2.7484599 1.32356,0.00656 8.10648,1.9824031 15.07315,4.3907661 18.44365,6.375935 32.29582,15.796225 46.41393,31.564192 14.3131,15.98575 20.95344,27.660314 24.2871,42.699787 7.31957,33.021587 9.55333,44.307427 10.68798,53.999997 0.68678,5.86667 1.83558,14.86667 2.55288,20.00001 0.71731,5.13333 1.34902,13.53333 1.4038,18.66666 0.0548,5.13334 1.1402,13.64847 2.41203,18.92254 1.98187,8.21842 3.19364,10.45796 8.47697,15.66666 3.39051,3.3426 7.07139,6.07747 8.17974,6.07747 3.57725,0 8.35674,7.37253 12.20248,18.82273 3.1436,9.3597 3.74049,13.30586 3.6706,24.26707 -0.12374,19.40702 -0.95606,22.40826 -9.93863,35.83734 -6.09977,9.11928 -7.61736,12.2889 -6.27963,13.11566 0.97023,0.59964 1.88828,2.88456 2.04011,5.0776 0.15183,2.19304 1.02124,6.28811 1.93204,9.10015 6.30592,19.4693 17.04004,28.93672 40.49136,35.71314 10.22684,2.95512 13.35814,3.30657 22.66667,2.54412 15.56481,-1.27491 33.88841,-8.46499 41.20363,-16.16808 5.14402,-5.4168 14.30832,-27.07679 16.06772,-37.97639 0.90676,-5.61742 2.08842,-9 3.14404,-9 3.27576,0 10.8474,13.8165 13.63943,24.88881 3.92873,15.58015 3.71502,30.9319 -0.597,42.88584 -6.17899,17.1296 -16.35729,32.31563 -31.20553,46.55868 l -10.07738,9.66667 h 4.46394 c 5.63098,0 24.95344,4.63321 33.69955,8.0806 6.94478,2.73737 21.58343,13.75128 28.4916,21.43664 6.76616,7.52738 9.6244,12.34355 15.44016,26.01688 4.90958,11.5428 5.60258,14.42379 5.72475,23.79922 0.1284,9.84889 -0.0741,10.69712 -2.64148,11.06397 -1.98423,0.28352 -3.76231,-1.08632 -6.20889,-4.78337 -10.43796,-15.77282 -25.27679,-25.3504 -45.01063,-29.05168 -21.95071,-4.11708 -29.83584,-3.47304 -76.2709,6.22973 l -14.27089,2.98195 4.27089,5.29037 c 20.13946,24.94685 30.94274,49.24831 36.81496,82.81352 3.88431,22.20234 3.92144,22.8014 2.56486,41.369 -2.60414,35.64279 -11.30462,65.74695 -17.01359,58.86805 z M 352.41397,608.35177 c 3.67014,-7.83066 5.2479,-13.49792 6.47835,-23.27008 0.89464,-7.1051 2.07953,-12.63842 2.63312,-12.29628 1.9646,1.2142 2.78337,-9.0809 1.30689,-16.43283 -1.71002,-8.51483 -0.98493,-10.31283 2.45027,-6.07592 3.16471,3.90329 4.06687,2.65411 3.97127,-5.49887 -0.0729,-6.22066 -0.65184,-10.45108 -3.20811,-23.44444 l -0.91811,-4.66667 3.43618,3.74102 c 1.8899,2.05756 3.43618,3.13006 3.43618,2.38336 0,-2.9509 -5.57913,-16.02279 -9.90386,-23.2047 -4.08594,-6.78536 -4.29786,-7.58634 -2.00723,-7.58634 1.47051,0 4.26785,2.3562 6.5694,5.53338 2.2046,3.04336 4.00836,4.67971 4.00836,3.63634 0,-2.61816 -9.33859,-18.21488 -12.97696,-21.67332 -1.63733,-1.55636 -2.98733,-3.46203 -3,-4.23484 -0.0133,-0.77282 -2.07901,-3.39786 -4.59188,-5.83342 -3.96973,-3.84761 -5.17407,-4.31474 -9.18434,-3.56242 -9.81909,1.84208 -17.64106,10.19682 -19.60582,20.94128 -0.52228,2.85614 -0.74236,5.193 -0.48907,5.193 0.25329,0 1.63739,-2.30682 3.07575,-5.12624 2.92982,-5.74294 11.12484,-13.54043 14.23073,-13.54043 2.25187,0 1.99293,0.59199 -3.75351,8.5816 -3.62192,5.03576 -8.63873,18.92903 -7.31368,20.25407 0.35086,0.35086 1.91694,-1.43155 3.48016,-3.96091 2.97867,-4.81959 8.71475,-9.34605 10.91443,-8.61283 0.70944,0.23648 -0.63183,3.4243 -2.98059,7.08402 -4.32444,6.73816 -9.90718,23.32072 -7.85122,23.32072 0.61516,0 1.71333,-1.70642 2.44037,-3.79204 1.66252,-4.7691 9.26972,-13.5413 11.74294,-13.5413 1.32872,0 0.56469,2.57439 -2.67104,9 -2.49265,4.95 -4.92515,11.1 -5.40555,13.66667 l -0.87347,4.66667 3.97045,-4.65815 c 2.18375,-2.56197 4.35865,-4.26996 4.83309,-3.79551 0.47444,0.47444 -0.3794,4.8838 -1.89742,9.79859 -3.74075,12.11114 -3.57964,14.34962 0.6838,9.50123 4.62298,-5.25724 5.55088,-3.43887 2.47534,4.85079 -2.22378,5.99381 -2.49607,9.39673 -1.94474,24.30305 0.3526,9.53333 0.63692,24.94533 0.6318,34.24889 -0.0107,19.44408 0.49331,19.70894 7.80772,4.10286 z m 199.09012,-29.22396 c 1.04526,-4.16468 -2.55756,-26.49359 -6.42095,-39.79446 -7.92308,-27.27767 -21.7903,-45.5654 -43.86679,-57.85043 -6.73693,-3.74893 -12.63621,-6.81624 -13.10952,-6.81624 -2.18159,0 -24.54743,-20.7319 -36.02653,-33.3946 -9.65658,-10.65225 -14.44714,-17.32512 -19.75973,-27.52375 -7.90588,-15.17698 -15.88524,-37.25989 -17.63028,-48.79186 -1.45456,-9.61242 0.46019,-22.92035 4.78398,-33.24962 6.131,-14.6466 4.07276,-13.64352 -9.67602,4.71564 -5.59234,7.46764 -9.70649,12.07752 -9.14252,10.24419 1.84816,-6.00806 8.39392,-18.09075 13.23992,-24.43936 6.62343,-8.67715 2.39444,-8.42019 -6.07748,0.36929 -6.08841,6.31661 -21.15149,33.83059 -21.15149,38.63498 0,1.30953 -0.44537,1.52305 -1.33055,0.63788 -1.97789,-1.9779 1.72755,-14.73594 7.99166,-27.51573 2.93638,-5.99072 5.33889,-11.3582 5.33889,-11.92773 0,-0.56952 -1.51473,-0.34533 -3.36608,0.49819 -4.68997,2.1369 -11.20796,13.14832 -18.78932,31.74248 -2.25884,5.54007 -3.01299,6.5052 -3.08397,3.9468 -0.21799,-7.85649 5.1461,-23.23736 12.304,-35.28014 3.8516,-6.48012 15.73786,-13.92986 23.88598,-14.9706 3.14383,-0.40156 7.22372,-1.48924 9.06642,-2.41709 1.8427,-0.92784 7.0567,-2.41616 11.58666,-3.30739 8.00098,-1.57409 8.5319,-1.49732 18.5829,2.68692 l 10.34661,4.30731 2.43234,-3.14957 c 1.33777,-1.73227 6.97505,-7.69342 12.52726,-13.24699 l 10.09496,-10.0974 2.36403,-11.56927 c 1.30023,-6.36309 1.89299,-11.56925 1.31724,-11.56925 -0.57575,0 -1.36496,0.75 -1.75383,1.66667 -0.38886,0.91666 -0.3627,-0.88008 0.0581,-3.99278 0.93125,-6.88793 -0.97918,-9.64952 -6.7366,-9.73793 -6.44163,-0.0989 -12.76547,-4.03737 -15.95388,-9.93596 -1.58558,-2.93334 -3.27066,-5.5126 -3.74462,-5.7317 -0.47397,-0.2191 -2.22833,-4.05256 -3.8986,-8.51881 -1.88538,-5.04148 -3.95432,-8.36037 -5.45658,-8.75323 -1.33086,-0.34802 -2.09108,-1.16456 -1.68939,-1.81452 0.40171,-0.64996 -0.0607,-1.18174 -1.0276,-1.18174 -0.96687,0 -2.50737,1.2 -3.42332,2.66666 -0.91595,1.46667 -2.49029,2.66667 -3.49855,2.66667 -1.9221,0 -3.42851,3.91912 -3.45935,9 -0.0107,1.78587 0.79123,3 1.98181,3 1.33333,0 2,1.33333 2,4 0,2.2 -0.64043,4 -1.42319,4 -0.8102,0 -1.06336,1.13371 -0.58775,2.6322 0.9991,3.14788 -1.69327,9.05458 -8.12373,17.8224 -4.73758,6.45959 -8.12542,7.85999 -4.08055,1.68672 1.71619,-2.61921 1.85976,-4.09637 0.71685,-7.37493 -1.58118,-4.53581 -3.83496,-5.48735 -3.83496,-1.61912 0,2.77871 -5.13498,10.93492 -10.429,16.56504 l -3.49068,3.71229 -2.13768,-2.83398 c -2.06644,-2.73954 -2.36532,-2.76638 -8.96864,-0.8054 -6.78609,2.01525 -6.86426,2.00437 -11.90248,-1.65603 -2.78933,-2.02652 -5.89498,-4.68463 -6.90144,-5.90689 -2.61222,-3.17234 -4.50685,-2.74504 -3.44834,0.7777 1.35872,4.52186 10.08549,13 13.38122,13 1.59231,0 5.37054,-0.87338 8.39607,-1.94085 6.43792,-2.27143 6.88113,-1.58219 1.83431,2.85259 -2.80611,2.4658 -4.86368,3.11754 -8.76695,2.777 -4.57087,-0.3988 -5.04455,-0.15347 -4.56339,2.3636 0.50003,2.61568 0.2428,2.70748 -3.74482,1.3366 -6.37063,-2.19012 -8.95458,-4.67823 -7.13515,-6.87051 1.12671,-1.35759 0.81976,-2.85635 -1.26085,-6.15643 -1.51256,-2.3991 -3.61995,-6.25274 -4.68308,-8.56364 -1.06314,-2.3109 -4.16018,-5.71506 -6.8823,-7.5648 -4.80136,-3.2626 -5.96493,-4.75653 -10.81594,-13.88671 -1.26236,-2.3759 -3.32176,-4.64564 -4.57647,-5.04386 -1.29903,-0.4123 -2.57712,-2.57095 -2.96839,-5.01352 -0.77078,-4.81174 3.23683,-12.29566 9.96082,-18.6011 3.15984,-2.96314 3.63154,-4.1221 2.52177,-6.19574 -1.08128,-2.02038 -0.0864,-5.28267 4.78411,-15.68838 3.38209,-7.22568 6.88045,-15.23758 7.77412,-17.80425 1.40692,-4.04072 3.98333,-5.95219 4.0436,-3 0.0107,0.55 0.45716,1.68611 0.99094,2.52469 1.09427,1.7191 -0.85766,7.78802 -7.02225,21.83347 -3.03559,6.91628 -3.81264,10.01831 -2.77063,11.06032 3.32222,3.32221 1.37991,7.78576 -7.22598,16.60587 -8.44326,8.6534 -8.6359,9.00609 -7.23607,13.24762 1.6548,5.01408 2.23991,5.47538 11.24357,8.86443 18.05515,6.79611 17.86008,6.75755 22.64552,4.47554 4.76451,-2.27203 4.93774,-2.80359 6.78919,-20.83307 1.30208,-12.67971 3.85792,-6.88823 2.74908,6.22936 -0.77025,9.11193 -0.64631,9.85997 1.48799,8.98118 1.28053,-0.52724 3.52822,-1.24062 4.99489,-1.5853 8.39684,-1.97332 9.71549,-4.21932 6.69548,-11.40411 -0.56521,-1.34468 -0.40028,-2.33333 0.38927,-2.33333 0.75352,0 1.76538,1.8 2.24858,4 0.4832,2.2 1.3134,4 1.8449,4 1.84462,0 13.9101,-8.21654 17.8479,-12.15435 2.17762,-2.1776 5.04527,-3.78371 6.37259,-3.56913 2.6756,0.43254 10.60128,-6.44002 10.60128,-9.19264 0,-0.9628 1.18084,-1.75055 2.62408,-1.75055 1.48704,0 3.42998,-1.53809 4.48394,-3.54964 1.65645,-3.16147 1.55174,-4.25161 -0.95742,-9.96857 -1.92122,-4.37739 -3.61865,-6.42894 -5.33694,-6.45036 -1.38582,-0.0173 -3.23332,-1.0074 -4.10555,-2.20024 -1.27393,-1.74222 -2.13931,-1.87264 -4.39941,-0.66307 -1.90875,1.02153 -3.08687,1.06348 -3.66353,0.1304 -0.50768,-0.82144 -3.54425,0.60244 -7.53997,3.53557 -4.8284,3.54438 -8.23183,4.9894 -12.23092,5.193 -3.04752,0.15515 -7.23,0.96252 -9.29441,1.79415 -2.0644,0.83163 -5.0344,1.51205 -6.6,1.51205 -3.92979,0 -1.79762,-1.90518 7.9559,-7.10892 4.35487,-2.32342 11.09068,-6.11266 14.96847,-8.42053 3.87779,-2.30787 10.37541,-5.24193 14.43917,-6.52013 l 7.38866,-2.32403 -0.79936,-20.14652 C 443.15975,139.06594 442.20242,127 441.472,123.33334 c -0.73042,-3.66667 -1.97168,-10.69692 -2.75836,-15.62279 -0.78667,-4.92587 -1.75725,-10.025867 -2.15684,-11.333333 -0.39959,-1.307468 0.14229,-0.877214 1.20419,0.95612 1.06189,1.833333 3.00965,6.783333 4.32837,11.000003 1.31871,4.21666 2.8101,7.66666 3.3142,7.66666 0.50411,0 1.66932,-2.68859 2.58936,-5.97466 0.92004,-3.28607 2.45322,-6.62235 3.40706,-7.41397 2.18172,-1.81066 -0.91208,-11.39394 -9.02147,-27.944701 -9.10735,-18.58752 -22.98848,-30.609521 -51.81671,-44.876773 -13.41901,-6.641142 -16.56959,-7.739307 -33.89512,-11.814509 -15.26724,-3.591063 -53.97002,-1.346762 -68.66667,3.98185 -3.3,1.19649 -8.78956,3.050881 -12.19901,4.120868 -20.0328,6.286865 -47.98205,37.0281 -56.58769,62.240531 -3.58801,10.512019 -8.55013,29.047454 -8.54088,31.903514 0.003,0.97782 2.97399,-4.22215 6.60182,-11.55548 6.53689,-13.213783 6.59661,-13.283535 6.66089,-7.7794 0.0784,6.70774 -7.34789,21.77401 -11.71251,23.76224 -2.37485,1.08183 -2.88929,2.44687 -2.88929,7.66667 0,3.49277 0.28989,6.35049 0.6442,6.35049 0.35432,0 2.09132,-2.85572 3.86,-6.34606 1.76868,-3.49033 4.45883,-7.84033 5.97811,-9.66666 2.31202,-2.77933 2.76953,-2.93304 2.80666,-0.94295 0.0616,3.30171 -5.52068,13.97488 -11.20182,21.41759 -2.6146,3.4253 -4.75382,7.75804 -4.75382,9.62831 0,4.94145 1.74539,3.14923 7.95938,-8.17299 3.03972,-5.53852 6.66182,-11.20511 8.04912,-12.5924 1.41593,-1.41594 3.97893,-8.28429 5.84298,-15.65811 4.93604,-19.526043 11.1724,-34.420628 13.45584,-32.137188 0.36752,0.367514 -1.73988,7.823712 -4.6831,16.569328 -6.34706,18.85987 -12.40459,47.46747 -10.3234,48.75371 0.96098,0.59392 0.92361,2.20816 -0.12054,5.20321 -0.83252,2.38817 -1.51368,7.80975 -1.51368,12.04793 0,8.55066 2.32672,12.3064 7.22618,11.66435 3.06898,-0.40216 24.77389,12.69231 24.77389,14.94593 0,0.7073 1.75396,1.286 3.8977,1.286 2.14374,0 5.59374,1.41086 7.66666,3.13524 2.07294,1.72439 5.11898,3.8455 6.76898,4.71359 3.36024,1.76785 3.99821,4.15117 1.11121,4.15117 -1.03884,0 -3.11983,-1.65 -4.62443,-3.66666 -1.5046,-2.01667 -2.75465,-2.91667 -2.77788,-2 -0.0725,2.86142 -3.63189,1.82486 -5.96598,-1.73742 -1.32454,-2.02149 -3.22384,-3.23996 -4.67628,-3 -1.3452,0.22224 -3.60744,-0.64564 -5.02719,-1.92862 -1.41976,-1.28299 -4.47285,-2.55294 -6.78465,-2.82211 -2.31182,-0.26916 -6.21453,-2.02343 -8.67269,-3.89836 -2.45817,-1.87495 -6.66465,-3.82081 -9.34776,-4.32416 -4.10872,-0.7708 -5.93194,-0.23912 -11.55636,3.37007 -5.71452,3.667 -6.67329,4.8904 -6.6454,8.4796 0.0541,6.96066 2.59947,16.08769 4.99115,17.89686 2.87863,2.17754 0.55276,6.47478 -3.2108,5.93222 -1.63639,-0.2359 -3.38044,1.0683 -4.92488,3.68282 -2.87632,4.86923 -8.88807,22.17291 -8.88807,25.58263 0,3.5078 -4.77522,7.76647 -8.7085,7.76647 -4.83438,0 -5.34228,2.9954 -1.93244,11.39671 1.64425,4.05118 2.76112,7.57333 2.48192,7.82698 -0.2792,0.25366 -3.6331,2.08215 -7.4531,4.0633 -6.03158,3.12816 -9.88076,7.66457 -8.0537,9.49164 1.1543,1.15429 15.5678,-8.16691 15.63626,-10.11196 0.0587,-1.66732 0.26543,-1.69203 1.24286,-0.14858 0.81438,1.286 0.1088,2.7664 -2.31042,4.8473 -3.01628,2.59449 -3.24018,3.28828 -1.6713,5.17866 1.18426,1.42695 2.78162,1.87495 4.61288,1.29372 2.38934,-0.75834 2.55436,-0.59154 1.12208,1.13424 -1.69066,2.03711 -0.95591,6.36132 1.08088,6.36132 0.60249,0 1.89365,-0.79821 2.86925,-1.77381 1.85875,-1.85875 5.08333,-1.52604 5.08333,0.52449 0,0.65732 -2.4,2.41951 -5.33333,3.91599 -5.64424,2.87948 -6.25232,3.88101 -3.82815,6.30519 1.88018,1.88017 12.27472,-4.55159 11.33091,-7.01114 -0.47137,-1.22838 0.13933,-1.25584 2.59672,-0.1168 1.76717,0.81915 3.21773,1.93936 3.22345,2.48936 0.005,0.55 0.97459,1 2.15306,1 1.39513,0 1.86366,-0.72702 1.34297,-2.08393 -0.60187,-1.56841 0.18743,-1.38104 3.19068,0.75747 3.78877,2.69784 5.16783,4.38562 2.99036,3.6598 -0.55,-0.18334 -1.11065,0.26666 -1.24589,1 -0.31878,1.72845 2.87085,1.03626 9.87274,-2.14251 4.33104,-1.96625 7.39867,-2.38247 13.32063,-1.80736 10.81158,1.04996 17.54036,2.71945 20.14795,4.99895 4.6898,4.09969 11.64728,5.57266 17.38213,3.68 4.83184,-1.59466 5.71152,-1.49638 9.92714,1.10901 5.12142,3.16521 6.26894,5.93861 6.13548,14.82857 -0.0896,5.96796 -0.0991,5.97971 -1.76962,2.20028 -1.26337,-2.85824 -3.46654,-4.41672 -8.8917,-6.28981 -3.96671,-1.36955 -7.32327,-2.50967 -7.45903,-2.5336 -0.13576,-0.024 2.06535,4.90647 4.89136,10.95647 4.00555,8.57517 9.35548,27.03285 9.35548,32.27712 0,1.96923 -2.59917,0.36933 -3.37593,-2.078 -1.04927,-3.30595 -2.84886,-1.90223 -3.59078,2.80088 -0.2892,1.83333 -0.96902,-0.86667 -1.51072,-6 -1.11705,-10.58587 -5.76908,-24.1318 -12.45361,-36.26295 -4.34395,-7.88343 -4.83548,-8.30529 -10.70199,-9.18503 -6.0991,-0.91461 -9.71802,0.16779 -10.73205,3.2099 -0.28809,0.86428 0.31176,1.57141 1.333,1.57141 2.57208,0 14.02556,13.54409 16.61428,19.64691 1.19024,2.80593 2.33784,10.018 2.60212,16.35309 0.40303,9.66051 -0.13921,13.39978 -3.6736,25.33334 -4.74227,16.01182 -13.91805,36.25132 -20.85459,46 -15.08857,21.20564 -37.54455,41.68993 -59.14047,53.94781 -15.12962,8.58762 -23.77964,16.1939 -33.19138,29.18643 -7.68278,10.60575 -13.70102,27.16192 -17.48155,48.09166 -3.1559,17.47169 -3.24033,23.91065 -0.32818,25.02814 4.98274,1.91206 6.4289,-1.28912 8.01064,-17.73217 1.63506,-16.99729 3.95639,-28.0441 6.18217,-29.4197 0.88316,-0.54582 1.07401,0.30172 0.53053,2.356 -0.46685,1.76467 -1.1998,10.4085 -1.62877,19.2085 l -0.77994,16 5.35138,-5.76223 c 4.12432,-4.44097 5.53774,-7.19254 6.16416,-12 1.00465,-7.71022 4.96505,-19.49612 10.38476,-30.90444 4.86546,-10.24163 4.71182,-10.00315 5.76558,-8.94937 0.45563,0.45562 -1.75144,8.64856 -4.90458,18.20652 -3.15316,9.55796 -5.32962,17.78149 -4.83659,18.27453 1.39468,1.39467 5.90837,-3.33786 6.88151,-7.21514 0.48138,-1.91798 1.95181,-5.02382 3.26762,-6.90189 1.31582,-1.87805 6.44472,-10.77176 11.39756,-19.76378 4.95286,-8.99203 9.57466,-16.70108 10.27067,-17.13124 2.862,-1.76882 -1.04233,10.22277 -7.63833,23.46004 -3.8424,7.71118 -6.82483,14.19472 -6.6276,14.40785 0.65146,0.704 10.02801,-5.29464 10.02801,-6.41541 0,-0.60382 3.89181,-6.25791 8.64848,-12.56466 4.75668,-6.30674 11.20668,-16.10345 14.33333,-21.77046 5.51887,-10.0028 5.69722,-10.17491 6.10834,-5.89439 0.4103,4.27217 -5.63882,19.5232 -9.61314,24.23663 -0.93714,1.11142 -3.09482,4.3404 -4.79482,7.17548 l -3.09092,5.15472 3.18682,-1.01146 c 4.89971,-1.55512 18.01903,-13.79052 23.5514,-21.96464 2.72982,-4.03333 6.93374,-12.73333 9.34204,-19.33333 l 4.37873,-12 -0.48446,10.22289 c -0.41546,8.76695 -1.26819,11.79482 -5.98735,21.26002 -3.02658,6.07041 -5.28373,11.25625 -5.01589,11.52409 0.26784,0.26784 3.71452,-2.69916 7.65929,-6.59335 9.44239,-9.32125 16.56237,-23.51416 19.27051,-38.41365 3.34654,-18.41167 3.18479,-17.85619 4.745,-16.29597 2.31756,2.31756 0.59164,25.12977 -2.59381,34.28348 -1.5288,4.39313 -2.54868,8.21848 -2.2664,8.50076 0.99983,0.99981 14.6652,-14.90023 17.46405,-20.31992 3.1265,-6.05403 11.1588,-33.2755 11.1588,-37.81704 0,-5.4009 2.49576,-4.40134 3.35743,1.34466 0.76064,5.07234 -0.18512,15.54158 -2.73759,30.30408 l -0.80688,4.66667 3.40402,-3.99325 c 3.99704,-4.68892 13.9702,-31.85482 15.06872,-41.0457 0.4189,-3.50475 1.22717,-6.65999 1.79614,-7.01163 1.86835,-1.1547 2.78783,7.10266 1.36479,12.25648 -0.90656,3.2833 -0.93863,5.5021 -0.0917,6.34897 1.86469,1.86469 4.56658,-2.23618 8.63294,-13.10294 2.96548,-7.92483 3.34856,-10.63119 2.73662,-19.33333 -0.57276,-8.14494 -0.41299,-9.53344 0.8191,-7.1186 2.14371,4.2016 3.7898,3.73402 3.7898,-1.0765 0,-2.24208 0.69248,-8.2696 1.53884,-13.39449 1.1629,-7.04159 1.1629,-9.69395 0,-10.85684 -2.17438,-2.17436 -1.90916,-3.67217 0.65022,-3.67217 1.959,0 2.1071,-1.85691 1.40905,-17.66667 -0.73333,-16.60908 -2.61056,-25.8791 -5.90852,-29.17706 -1.01073,-1.01073 -1.68303,-0.61085 -2.31368,1.37618 -0.48893,1.54048 -1.44853,2.80088 -2.13245,2.80088 -0.68391,0 -1.24348,1.2 -1.24348,2.66666 0,1.77778 -0.8889,2.66667 -2.66667,2.66667 -1.46667,0 -2.66667,0.6 -2.66667,1.33333 0,0.73334 -0.83581,1.33334 -1.85734,1.33334 -1.02155,0 -2.23567,0.98588 -2.69806,2.19084 -0.46238,1.20496 -1.15473,1.87681 -1.53853,1.493 -1.04548,-1.04547 15.03643,-48.23371 20.2368,-59.37975 2.48809,-5.33276 4.52517,-10.13276 4.52684,-10.66667 10e-4,-0.53392 1.80167,-1.03465 4,-1.11273 2.19833,-0.0781 3.99696,-0.0772 3.99696,10e-4 0,0.0791 3.07054,8.843 6.8234,19.47531 9.72219,27.54408 17.22398,51.0619 16.51428,51.77159 -0.33453,0.33453 -0.98656,-0.37763 -1.44894,-1.58259 -0.46239,-1.20445 -1.67651,-2.19033 -2.69806,-2.19033 -1.02153,0 -1.85734,-0.6 -1.85734,-1.33334 0,-0.73333 -1.20486,-1.33333 -2.67747,-1.33333 -1.88741,0 -3.31901,-1.60341 -4.85171,-5.434 -1.8267,-4.56536 -2.46237,-5.14589 -3.97661,-3.63165 -1.41997,1.41998 -1.6202,5.39625 -0.94377,18.74249 0.7156,14.11939 1.13938,16.55611 2.54505,14.63375 3.12857,-4.27857 3.71527,-0.3494 1.48345,9.93503 -2.23542,10.30113 -2.08436,14.34412 0.30151,8.06882 1.30872,-3.44218 4.11955,-6.1294 4.11955,-3.93837 0,0.66007 -0.89351,4.14548 -1.98558,7.74536 -2.18146,7.19103 -2.64604,15.99751 -0.90081,17.07611 0.61249,0.37854 2.1382,-1.46034 3.39048,-4.08638 3.19017,-6.68985 3.8282,-4.94721 1.48395,4.05304 -3.10144,11.90718 -2.14428,28.5615 1.7154,29.84806 1.12593,0.37532 1.66125,-1.44934 1.73133,-5.90115 0.0557,-3.54444 0.96348,-8.54444 2.01711,-11.11111 l 1.91566,-4.66666 -0.64937,4.32798 c -0.76647,5.10846 2.47989,32.75801 4.45303,37.92678 1.75516,4.5978 13.57413,22.41191 14.86942,22.41191 0.54051,0 -0.52609,-3.73546 -2.3702,-8.301 -2.59876,-6.4339 -3.49276,-11.45727 -3.9746,-22.33334 -0.78317,-17.67728 1.45798,-25.92365 2.9077,-10.699 1.35781,14.25934 4.10748,26.88714 7.15344,32.85204 3.32776,6.51678 14.88769,22.28108 15.7248,21.44398 0.34641,-0.3464 -0.2686,-2.95472 -1.3667,-5.79626 -3.23428,-8.3694 -6.12188,-25.03737 -6.02482,-34.77688 0.10706,-10.75036 0.82937,-9.37908 5.76408,10.94379 4.67544,19.25509 11.8165,33.73912 22.24614,45.12123 4.52943,4.94308 8.52418,8.69857 8.87722,8.34553 0.35304,-0.35303 -1.1563,-3.82748 -3.35408,-7.72099 -2.19778,-3.8935 -5.00276,-10.61105 -6.23331,-14.92788 -3.14348,-11.02764 -3.27803,-34.53725 -0.17955,-31.37345 0.29926,0.30556 1.4955,6.08401 2.65831,12.841 2.37572,13.80504 4.68208,20.34105 11.00213,31.17897 4.288,7.35327 18.77099,23.33786 20.01675,22.0921 0.35152,-0.35151 -1.48721,-3.84552 -4.08605,-7.76448 -5.71148,-8.6127 -9.95076,-20.4353 -11.04121,-30.79203 -1.07238,-10.18496 1.17001,-9.94028 4.05672,0.44265 1.24002,4.46012 4.1224,11.81012 6.40526,16.33334 4.74371,9.39904 20.75927,26.70917 26.59335,28.74294 2.11787,0.7383 3.85067,1.0542 3.85067,0.70203 0,-0.35217 -2.66006,-4.67801 -5.91123,-9.61299 -8.72089,-13.23749 -12.42021,-22.93762 -11.54576,-30.27464 0.0873,-0.73333 2.65148,3.16667 5.69796,8.66667 3.04648,5.5 9.33855,15.04149 13.98237,21.20333 4.64383,6.16183 8.44332,11.70807 8.44332,12.32498 0,1.42685 10.88323,9.36625 11.70824,8.54124 0.33866,-0.33867 -0.8741,-3.19286 -2.69502,-6.34266 -5.98272,-10.34874 -13.19875,-27.73122 -12.76856,-30.7578 0.32306,-2.27296 1.79341,-0.46817 6.27114,7.69758 3.21703,5.86666 8.42751,14.94134 11.57884,20.16596 3.15134,5.2246 6.57628,11.5246 7.611,14 1.93502,4.62925 5.81583,8.75701 7.06174,7.51111 0.38661,-0.38662 -1.76863,-8.2999 -4.78942,-17.58507 -3.0208,-9.28519 -5.2189,-17.60436 -4.88468,-18.48707 1.4977,-3.95552 14.33032,28.14471 16.23871,40.62039 0.58429,3.81967 1.79929,5.51208 5.54288,7.72085 2.637,1.55587 5.1011,2.52232 5.47575,2.14766 0.37467,-0.37466 -0.0831,-7.31688 -1.01728,-15.42716 -0.93416,-8.11028 -1.35183,-15.09262 -0.92815,-15.5163 1.54488,-1.54488 5.12496,14.45684 6.12612,27.38159 1.04946,13.54828 3.49435,20.13471 7.47403,20.13471 1.06912,0 2.34355,-1.5925 2.83207,-3.53888 z M 302.69633,389.00001 c 0.0379,-2.1266 4.89967,-8.51512 5.7972,-7.6176 0.94723,0.94723 -3.23739,9.28427 -4.66005,9.28427 -0.64175,0 -1.15346,-0.75 -1.13715,-1.66667 z m 1.30368,-12.02382 c 0,-2.30732 6.45315,-11.64284 8.04807,-11.64284 1.94173,0 1.5986,1.23105 -2.10427,7.54952 -3.31532,5.65717 -5.9438,7.46732 -5.9438,4.09332 z m -0.044,-15.36662 c 0.50073,-2.71858 1.56383,-6.14289 2.36245,-7.60956 2.05067,-3.76604 9.49267,-10.6333 10.46716,-9.6588 2.24743,2.24743 -5.54146,16.46876 -11.1846,20.42136 -2.4166,1.69266 -2.50596,1.52136 -1.64501,-3.153 z m -2.26511,-35.60956 c 0.79994,-6.14324 6.22776,-21.19245 7.26824,-20.15197 0.38428,0.38428 -0.63029,5.67568 -2.25462,11.75866 -3.29066,12.32324 -6.1483,17.10722 -5.01362,8.39331 z m 61.67669,-15.26712 c -2.26838,-4.38655 -2.65416,-8.06621 -0.84568,-8.06621 0.992,0 5.4781,9.30314 5.4781,11.36032 0,2.1073 -2.90892,0.0388 -4.63242,-3.29411 z m -54.09347,-24.56137 c 4.77214,-9.62767 9.15604,-17.71095 9.74198,-17.96286 0.58594,-0.25192 2.56839,-3.42412 4.40543,-7.04936 1.83705,-3.62522 3.91872,-6.2337 4.62595,-5.79662 2.16808,1.33994 1.52618,3.20578 -5.43752,15.80564 -14.62564,26.46302 -18.02215,31.94064 -19.97788,32.21873 -1.40946,0.20043 0.63133,-5.08912 6.64204,-17.21553 z m -26.94078,15.48664 c -2.90816,-0.64854 -3.03137,-2.80731 -0.22176,-3.88546 1.16138,-0.44566 2.51138,-1.87694 3,-3.18061 1.33336,-3.55741 18.85312,-21.25875 21.04068,-21.25875 1.50778,0 1.33308,1.11508 -0.84294,5.38043 -1.67146,3.27633 -3.33492,5.01576 -4.25368,4.44793 -0.9677,-0.59805 -1.22526,-0.19358 -0.7182,1.1278 0.43484,1.13315 -0.77283,4.38158 -2.68368,7.21872 -5.08644,7.55211 -10.59743,11.20319 -15.32042,10.14994 z m 16.33334,-14.40351 c 0,-1.14328 -0.6,-1.70787 -1.33334,-1.25464 -0.73333,0.45323 -1.33333,1.38864 -1.33333,2.07869 0,0.69006 0.6,1.25464 1.33333,1.25464 0.73334,0 1.33334,-0.93541 1.33334,-2.07869 z m 81.64009,12.73421 c -3.63745,-1.62853 -5.7177,-3.62649 -6.6951,-6.43025 -1.05187,-3.01739 -1.01267,-4.20411 0.15185,-4.59628 1.15641,-0.38944 1.18163,-1.02468 0.0957,-2.41216 -0.81074,-1.03592 -1.83068,-3.33329 -2.2665,-5.10528 -0.64212,-2.61075 0.58574,-1.86076 6.47409,3.95445 3.99657,3.94694 7.26651,7.92563 7.26651,8.84155 0,0.91591 1.2,2.30752 2.66666,3.09245 6.79523,3.6367 -0.14837,6.03346 -7.69324,2.65552 z m -14.7194,-2.91872 c -4.72733,-7.6621 -21.72718,-42.6513 -21.31532,-43.8713 0.21704,-0.64294 2.31208,0.62432 4.65566,2.8161 2.34356,2.19179 4.86521,3.98507 5.60366,3.98507 0.73846,0 2.52843,3.75 3.97771,8.33333 1.44927,4.58334 4.52509,13.63586 6.83516,20.11672 4.51236,12.65939 4.59749,15.6777 0.24313,8.62008 z m -81.897,-17.82412 c 0.51461,-2.69204 0.20851,-3.12352 -1.69717,-2.39222 -2.13786,0.82036 -2.12388,0.58038 0.17366,-2.9808 1.3743,-2.13015 3.69896,-4.90303 5.16594,-6.16196 2.41448,-2.07208 2.4444,-2.29318 0.31578,-2.33334 -1.29328,-0.0244 -3.53476,0.69466 -4.98106,1.59788 -2.17126,1.35598 -4.31798,1.09026 -12.31524,-1.52438 -5.32708,-1.74164 -12.0856,-4.78004 -15.01894,-6.752 -7.88165,-5.2985 -8.40794,-5.52983 -9.29933,-4.08754 -0.44931,0.72699 1.45924,3.88678 4.2412,7.02175 5.52356,6.22441 8.92877,11.60707 7.95745,12.57839 -0.82796,0.82796 -13.88381,-16.25931 -18.89932,-24.7351 -3.9896,-6.74208 -5.85596,-8.30013 -6.16111,-5.14336 -0.51486,5.32612 0.45447,8.17631 6.62612,19.48316 l 6.81371,12.48315 -4.30603,-3.28295 c -2.36832,-1.80561 -6.57252,-6.67304 -9.34268,-10.81648 -2.77014,-4.14345 -5.65832,-7.53354 -6.41813,-7.53354 -1.72205,0 -0.44661,-19.11387 1.52073,-22.7899 0.74867,-1.39889 2.2401,-2.54344 3.3143,-2.54344 2.62236,0 2.58642,-7.14785 -0.0469,-9.33333 -1.60249,-1.32995 -2,-1.31702 -2,0.0651 0,0.94872 -0.95753,2.78302 -2.12786,4.07622 -1.24182,1.37218 -2.91892,7.66733 -4.02759,15.11784 -1.70659,11.46867 -1.68359,13.18455 0.22617,16.87764 2.7607,5.33857 1.67891,6.32727 -1.91872,1.75363 -5.06777,-6.44263 -3.31204,-28.19142 2.81115,-34.82257 2.98841,-3.23632 2.36529,-7.49392 -0.91268,-6.23604 -1.44521,0.5546 -2.05044,-0.0423 -2.05044,-2.02246 0,-1.92043 -0.84375,-2.80932 -2.66667,-2.80932 -3.33913,0 -3.39597,-1.44958 -0.16532,-4.21575 2.34098,-2.0044 2.87531,-1.81331 8.33334,2.98016 3.2076,2.81704 6.81853,5.14747 8.0243,5.17873 1.20579,0.0312 4.20579,1.95343 6.66667,4.27146 4.56578,4.3007 15.5502,11.7854 17.29612,11.7854 0.5315,0 1.3617,-1.8 1.8449,-4 0.4832,-2.2 1.49506,-4 2.24858,-4 0.78955,0 0.95448,0.98865 0.38927,2.33333 -3.02001,7.18479 -1.70136,9.43079 6.69548,11.40411 1.46667,0.34468 3.71436,1.05806 4.99489,1.5853 2.1343,0.87879 2.25824,0.1308 1.48799,-8.98118 -1.10884,-13.11759 1.447,-18.90907 2.74908,-6.22936 1.85145,18.02948 2.02468,18.56104 6.78919,20.83307 4.00478,1.90976 4.97348,1.91492 10.2019,0.0544 3.17732,-1.13064 8.91632,-3.16811 12.75335,-4.52769 5.74612,-2.03605 7.30849,-3.29493 8.85964,-7.13864 2.38676,-5.91432 1.27561,-7.97252 -6.36383,-11.78784 -4.95088,-2.47258 -6.33102,-3.97412 -7.4407,-8.09514 -0.958,-3.55775 -0.92144,-6.32436 0.1232,-9.32096 2.00094,-5.73995 0.90036,-10.26028 -6.09212,-25.02155 -3.26086,-6.88375 -5.35894,-12.16368 -4.66238,-11.73317 0.69656,0.43049 1.26647,0.1473 1.26647,-0.62931 0,-2.94695 2.28608,-1.21548 5.16997,3.91569 1.6469,2.93024 2.56467,6.02295 2.03951,6.87268 -0.52516,0.84972 -0.38531,1.19296 0.31079,0.76276 1.60157,-0.98982 11.46429,22.12764 10.89953,25.54767 -0.29915,1.81155 1.97521,4.30607 7.91353,8.67959 8.8144,6.4917 9.79874,8.78169 6.97134,16.2183 -0.91891,2.41692 -0.92318,4.11104 -0.0133,5.2076 2.39423,2.88487 -5.93673,16.20133 -12.56646,20.08662 -3.15555,1.84927 -10.07479,8.16593 -15.37608,14.03703 -5.3013,5.87108 -11.28447,11.52576 -13.29594,12.56593 -3.5481,1.8348 -3.6385,1.79321 -3.02937,-1.39321 z m 142.97631,0.0873 c 0,-1.1 -1.05,-2.01896 -2.33333,-2.04213 -1.85642,-0.0335 -1.56868,-0.71484 1.40768,-3.33333 4.33381,-3.81272 6.96521,-4.18194 8.1321,-1.14104 0.6741,1.75664 1.19386,1.84413 2.83986,0.47808 1.6758,-1.3908 1.8752,-1.30846 1.18525,0.48952 -0.76113,1.98346 -8.42039,7.5489 -10.38893,7.5489 -0.46346,0 -0.84263,-0.9 -0.84263,-2 z m 22.9179,-37.33333 0.0708,-10.66667 1.2685,7.90779 c 0.8321,5.18717 0.80775,8.85696 -0.0708,10.66667 -1.01038,2.08141 -1.32188,0.13958 -1.2685,-7.90779 z m -241.30973,6.16985 c -1.25646,-0.77653 -0.71128,-4.00592 2.29492,-13.59416 2.16857,-6.91663 3.97752,-11.27848 4.01988,-9.69299 0.0781,2.92635 -3.5369,23.17567 -4.26806,23.90683 -0.21934,0.21935 -1.14038,-0.0595 -2.04674,-0.61968 z m 239.93569,-20.16985 c 0,-1.83334 0.30264,-2.58334 0.67252,-1.66667 0.36988,0.91667 0.36988,2.41667 0,3.33333 -0.36988,0.91667 -0.67252,0.16667 -0.67252,-1.66666 z m -1.89159,-6.51907 c -0.36232,-1.38549 -0.14148,-3.33549 0.49075,-4.33333 0.78152,-1.23351 1.15602,-0.42712 1.1699,2.51906 0.0228,4.85119 -0.66886,5.60688 -1.66065,1.81427 z M 291.56662,201.32879 c -5.07354,-12.53332 -4.1485,-16.22505 1.43882,-5.74217 4.00696,7.51784 5.68254,15.10231 3.3279,15.06363 -0.55,-0.009 -2.69502,-4.2037 -4.76672,-9.32146 z m -8.37565,4.99415 c -0.81163,-1.64428 -3.11293,-5.8396 -5.11399,-9.32293 -2.00106,-3.48334 -3.08672,-6.33334 -2.41258,-6.33334 1.33728,0 10.14422,12.56795 11.44553,16.33334 1.19241,3.45033 -2.16821,2.86972 -3.91896,-0.67707 z m 91.47571,-2.84368 c 0,-2.31996 14.6844,-24.77507 17.96308,-27.4688 2.23891,-1.83945 2.348,-1.75775 1.44632,1.08321 -1.33717,4.21307 -16.89613,28.23967 -18.28721,28.23967 -0.6172,0 -1.12219,-0.83433 -1.12219,-1.85408 z m -43.84159,-7.32084 c -8.07751,-8.07751 -12.33657,-25.35895 -10.75652,-43.64535 1.78165,-20.61969 8.60761,-31.23979 17.80951,-27.70869 3.35521,1.28751 11.03833,15.14196 13.3398,24.05475 2.8052,10.86356 2.66961,16.3227 -0.70507,28.38916 -3.73037,13.33826 -7.2342,20.08505 -10.43085,20.08505 -1.39179,0 -3.4332,0.34639 -4.53647,0.76976 -1.10328,0.42336 -3.22745,-0.45173 -4.7204,-1.94468 z m 59.3462,-3.15841 c 2.64498,-5.11731 11.84683,-17.77512 13.79915,-18.98172 0.75105,-0.46419 1.36291,0.32958 1.36291,1.76812 0,3.9649 -12.25415,21.51574 -15.03424,21.53258 -2.24174,0.0136 -2.24854,-0.21597 -0.12787,-4.31898 z m -20.77356,-66.17789 c -1.78869,-4.3183 -12.55934,-15.52831 -17.61296,-18.33142 -5.65754,-3.13811 0.16915,-1.89231 6.75255,1.44375 7.08577,3.59064 13.00313,9.77029 14.2988,14.9326 1.28689,5.12742 -1.47408,6.69731 -3.43839,1.95507 z m -68.06439,1.95509 c 0,-0.98958 5.2247,-12.77721 5.66331,-12.77721 0.68085,0 0.11587,5.67898 -0.96161,9.66667 -0.54494,2.01667 -1.82574,3.66667 -2.84624,3.66667 -1.0205,0 -1.85546,-0.25026 -1.85546,-0.55613 z M 309.90516,116 c 0.39881,-1.83333 0.7333,-3.72981 0.74332,-4.21439 0.0256,-1.23978 12.0086,-6.90632 12.8421,-6.07281 0.3766,0.3766 -1.80961,2.08662 -4.85824,3.80004 -3.04862,1.71343 -6.42256,4.62398 -7.49762,6.46791 l -1.95467,3.35259 z M 442.70752,94.66667 c 0,-3.3 0.58162,-6.9 1.2925,-8 0.93925,-1.453399 1.29249,-0.360196 1.29249,4 0,3.3 -0.58161,6.9 -1.29249,8 -0.93926,1.4534 -1.2925,0.360196 -1.2925,-4 z M 327.23614,93.520058 c 2.14654,-2.287399 4.18204,-3.879664 4.52334,-3.538368 0.90434,0.904348 -2.43082,4.602033 -5.64982,6.263921 -2.10472,1.086622 -1.83222,0.427308 1.12648,-2.725553 z m -1.82878,-8.853388 c -0.008,-0.733334 1.1586,-2.833334 2.59265,-4.666667 1.43405,-1.833334 2.62071,-2.649804 2.63701,-1.814379 0.0163,0.835425 -1.15038,2.935425 -2.59265,4.666667 -1.44227,1.731241 -2.62893,2.547712 -2.63701,1.814379 z m 112.03125,-5.444445 c 0.064,-1.553257 0.37992,-1.8692 0.80555,-0.805556 0.38516,0.9625 0.3378,2.1125 -0.1052,2.555556 -0.44305,0.443055 -0.75819,-0.344445 -0.70029,-1.75 z m -107.4386,-21.88889 c 0.45323,-0.733333 1.08864,-1.333333 1.41203,-1.333333 0.32338,0 0.58797,0.6 0.58797,1.333333 0,0.733334 -0.63541,1.333334 -1.41203,1.333334 -0.77661,0 -1.0412,-0.6 -0.58797,-1.333334 z M 543.00002,477.34803 c 2.01667,-0.008 3.66667,-0.56231 3.66667,-1.23164 0,-0.66932 -2.1,-4.40564 -4.66667,-8.30292 -4.35747,-6.61648 -5.97791,-11.83128 -3.66667,-11.79985 0.55,0.008 3.66668,3.67349 6.92595,8.14672 7.35869,10.09952 9.98376,11.43816 18.01867,9.18852 3.33046,-0.93247 6.05538,-1.98082 6.05538,-2.32966 0,-0.34882 -1.50401,-2.42165 -3.34225,-4.60628 -4.61173,-5.48074 -2.68855,-7.58069 2.49256,-2.72165 2.30067,2.15765 5.27625,4.30756 6.61241,4.77756 3.68088,1.29476 14.23728,-1.75704 14.23728,-4.11595 0,-1.47673 0.78182,-1.73825 3,-1.00352 1.65,0.54655 5.85,1.27443 9.33334,1.61754 5.07988,0.50036 6.33333,0.2181 6.33333,-1.42618 0,-3.30565 1.93545,-3.59522 6.78617,-1.01529 4.70568,2.5028 22.54717,4.67188 22.54717,2.74119 0,-3.18671 -3.38932,-9.18552 -7.74606,-13.70983 -9.3048,-9.66273 -14.9908,-11.21624 -47.05736,-12.85688 -29.83472,-1.52646 -55.61984,-7.36855 -76.8835,-17.41936 -12.23086,-5.78126 -15.08692,-7.86011 -26.84742,-19.54167 -11.54654,-11.46904 -13.90243,-14.62569 -19.21011,-25.73947 -3.32728,-6.967 -6.78004,-15.5681 -7.6728,-19.11356 -0.89275,-3.54546 -2.53255,-6.79524 -3.64399,-7.22174 -2.58457,-0.9918 -7.5996,4.87508 -5.74906,6.72561 0.83932,0.83932 0.39836,2.52636 -1.25111,4.78656 -2.70627,3.70827 -4.8819,17.10903 -3.40326,20.96231 0.76474,1.99286 1.50131,1.70285 5.48734,-2.16056 4.39221,-4.2571 8.13648,-4.85288 4.73412,-0.7533 -0.89276,1.07571 -2.69497,4.77935 -4.00493,8.2303 -2.17406,5.72733 -2.20584,6.72224 -0.36455,11.40972 2.23107,5.67974 3.68461,6.44292 4.91112,2.57854 1.23767,-3.89954 6.09389,-9.56418 7.47011,-8.71365 0.67841,0.41929 0.22294,2.64836 -1.02427,5.01271 -2.78097,5.27194 -3.01568,24.93513 -0.36911,30.92433 l 1.76756,4 0.5279,-3.33333 c 1.28337,-8.10359 4.64622,-17.20512 7.20581,-19.50243 l 2.78269,-2.49757 -1.16289,6 c -2.16128,11.1511 -1.2144,24.03982 2.29697,31.26621 4.41362,9.08318 5.92675,8.96888 6.1883,-0.46738 0.22421,-8.08951 2.36661,-14.74041 6.27026,-19.4655 2.09546,-2.5364 2.15408,-2.37356 1.20022,3.33333 -1.64714,9.8545 -0.93398,24.58129 1.4318,29.56677 1.18761,2.50272 3.92162,5.59144 6.07558,6.86381 l 3.91628,2.3134 -0.74124,-11.03865 c -0.50516,-7.52291 -0.19701,-12.31263 0.96752,-15.03866 1.69564,-3.96928 1.71544,-3.93855 2.57739,4 1.19127,10.9717 4.96991,21.93963 9.07517,26.34178 2.80127,3.00384 9.92231,6.28253 13.721,6.31745 0.44487,0.004 -0.92866,-4.90252 -3.05226,-10.90359 -2.76276,-7.80722 -3.59968,-12.07418 -2.94211,-15 0.55161,-2.45432 1.17044,-3.28944 1.54796,-2.08897 2.02355,6.4346 9.18119,21.31639 12.08784,25.13239 3.03575,3.98549 3.91135,4.38137 8.14231,3.68134 2.60743,-0.43141 6.39077,-0.79098 8.40744,-0.79905 z m -384.71053,-4.34801 c 3.98405,-4.33944 11.04385,-19.01792 11.04385,-22.96198 0,-4.17178 2.58823,-4.50621 2.87403,-0.37136 0.38466,5.56488 -0.2316,8.55622 -3.45967,16.79326 l -3.2162,8.20674 h 3.70375 c 10.07301,0 18.5647,-13.49532 19.0867,-30.33333 0.1421,-4.58333 0.74263,-8.33334 1.33454,-8.33334 3.27684,0 4.84808,15.26711 2.4366,23.67547 -1.48954,5.1937 0.40774,5.74531 5.63058,1.63702 5.28739,-4.15906 6.73135,-10.56758 5.92794,-26.30911 -0.62892,-12.32295 -0.49408,-13.5626 1.21049,-11.12898 3.79733,5.42144 5.80457,12.17404 5.80457,19.52722 0,9.64071 2.23098,9.15041 6.46899,-1.42165 3.4324,-8.56242 4.15909,-17.34683 2.3698,-28.64663 l -1.16123,-7.33334 2.77158,2.48903 c 1.74365,1.56589 3.58357,6.13879 4.96094,12.32979 1.20415,5.41242 2.66738,9.54533 3.25162,9.18425 1.7801,-1.10016 4.15668,-17.80241 3.28154,-23.0622 -0.45214,-2.71748 -1.69945,-7.26576 -2.77178,-10.10729 -1.07235,-2.84154 -1.62828,-5.48786 -1.23543,-5.88072 1.16125,-1.16124 5.69192,3.59664 7.43724,7.8102 2.10024,5.07046 3.05619,4.9218 5.12407,-0.79684 2.02845,-5.6096 1.1237,-10.58946 -3.39175,-18.66848 -1.83347,-3.28043 -2.984,-5.9644 -2.55676,-5.9644 0.42725,0 3.24811,2.23265 6.26856,4.96145 l 5.49175,4.96147 -0.49161,-10.82559 c -0.38175,-8.40612 -1.07492,-11.47012 -3.10155,-13.70952 -1.9812,-2.1892 -2.20731,-3.13279 -0.93859,-3.91691 1.27805,-0.78986 1.07912,-1.76434 -0.84533,-4.14093 -3.53196,-4.3618 -6.26611,-2.72548 -8.17048,4.8898 -0.88671,3.54579 -4.37694,12.14689 -7.75607,19.11356 -5.35124,11.03253 -7.83051,14.33479 -19.21756,25.59683 -17.10789,16.92006 -28.60136,22.85181 -59.12128,30.51233 -19.00189,4.76948 -23.95622,5.47977 -45.33334,6.49935 -15.093596,0.71988 -26.52234,1.92947 -30.796934,3.25944 -12.038851,3.74569 -23.203064,14.57531 -23.203064,22.50764 0,2.7112 15.431954,1.34181 21.932296,-1.94621 4.832791,-2.44454 5.396534,-2.48446 6.858118,-0.48563 2.451313,3.35237 10.503731,4.15877 14.616802,1.46379 3.307364,-2.16707 3.48872,-2.15215 4.14058,0.34056 0.462276,1.76776 2.25426,2.86694 5.566962,3.41473 8.49547,1.40481 10.67422,0.94099 15.50552,-3.30095 5.31577,-4.6673 6.5572,-2.56596 1.94677,3.29527 -3.01773,3.83641 -3.18079,3.67031 5.931,6.04149 7.08906,1.84482 9.12826,0.24612 19.61555,-15.3781 2.04588,-3.048 3.88641,-2.97848 3.88641,0.1468 0,0.83757 -2.10001,5.01026 -4.66667,9.27264 -2.56667,4.26237 -4.66667,7.93308 -4.66667,8.15713 0,0.82989 4.84421,1.63139 10.76759,1.78156 4.74657,0.12027 6.71233,-0.51131 8.85523,-2.84533 z m 399.04386,-48.17051 c 0,-0.27711 -0.9,-2.65783 -2,-5.29051 -2.31305,-5.53591 -2.61872,-14.55821 -0.61976,-18.29331 2.19102,-4.09393 3.85372,-2.99982 3.04208,2.00176 -0.87456,5.38926 3.66088,15.9897 7.78576,18.19726 3.16023,1.6913 9.65726,0.46076 11.9121,-2.25616 1.32112,-1.59186 1.08114,-2.96378 -1.2412,-7.09584 -4.37495,-7.78418 -3.6811,-10.43239 1.25914,-4.80576 2.27598,2.59218 5.16372,4.71306 6.41722,4.71306 3.17813,0 9.72576,-7.17148 9.2067,-10.0839 -0.2923,-1.64022 0.62778,-2.66403 2.89191,-3.21794 5.84701,-1.43045 21.26956,-38.69816 16.01451,-38.69816 -0.73235,0 -4.78235,2.61248 -9,5.80552 -11.43416,8.6564 -21.74887,11.81487 -41.00179,12.55515 -9.66877,0.37177 -18.17536,0.0241 -21.49745,-0.87856 -3.02362,-0.82157 -12.88667,-6.44115 -21.91791,-12.48793 -12.29308,-8.23075 -17.97751,-13.00502 -22.61515,-18.99418 -3.40709,-4.4 -6.74189,-7.96277 -7.41068,-7.91729 -2.56708,0.17462 -9.89215,11.54436 -9.89215,15.35428 0,4.28701 1.44671,4.97288 4,1.89635 1.68846,-2.03446 9.33334,-2.8395 9.33334,-0.98284 0,0.55944 -1.34944,1.60944 -2.99875,2.33333 -4.66568,2.0478 -11.61833,14.63925 -10.46488,18.95219 1.28872,4.8187 3.27848,5.11814 5.55529,0.83602 2.1708,-4.0827 11.27368,-11.1387 14.36995,-11.1387 1.44131,0 0.82756,1.30366 -2.04007,4.33333 -5.84138,6.17147 -7.08821,9.21147 -7.08821,17.28233 0,6.77958 2.55991,13.051 5.32724,13.051 0.64681,0 1.57163,-2.638 2.05512,-5.86221 1.01864,-6.79272 4.63524,-13.3398 8.51628,-15.41688 2.96453,-1.58656 2.81664,-0.39223 -0.81884,6.61243 -3.95979,7.62948 -1.47223,19.25925 5.90508,27.6074 l 3.77703,4.27405 v -7.00024 c 0,-8.60563 3.53468,-18.07876 7.93894,-21.27679 3.77366,-2.74013 4.16507,-1.56957 1.30736,3.90983 -3.0818,5.90908 -2.5849,16.56896 1.0218,21.92095 3.08898,4.58374 9.52232,9.12358 10.9317,7.7142 0.42876,-0.42876 0.16278,-2.40184 -0.59107,-4.38462 -2.29591,-6.0387 -1.65343,-16.9513 1.28141,-21.76478 2.78346,-4.5652 6.35442,-6.09235 4.67663,-2 -2.73641,6.67453 -2.32426,13.5378 1.17118,19.5023 3.95648,6.75123 9.32862,11.4977 13.01329,11.4977 1.36777,0 2.48685,-0.22672 2.48685,-0.50384 z m -416.75436,-8.31972 c 5.26509,-6.8955 6.82868,-13.5578 4.69745,-20.01548 -1.94448,-5.89187 -0.5429,-7.4722 2.78575,-3.14104 4.20752,5.47472 5.08039,16.4905 1.92654,24.31341 -1.43027,3.54769 4.88049,3.04424 8.3567,-0.66667 6.1202,-6.5334 7.29088,-16.59944 3.02382,-26 -2.96872,-6.54021 -1.98308,-7.22789 2.86654,-2 4.34806,4.68719 6.43088,10.9806 6.43088,19.43139 v 6.70012 l 3.46002,-3.23243 c 7.91549,-7.3948 10.31682,-18.831 6.00217,-28.58497 -3.40809,-7.70459 -3.4094,-7.73647 -0.24803,-6.04455 3.6655,1.96171 8.11576,9.73706 8.13959,14.22115 0.0107,2.11345 0.61565,4.74263 1.34315,5.84263 1.12082,1.69472 1.72376,1.49118 3.94993,-1.33334 1.88319,-2.38934 2.63312,-5.41012 2.64807,-10.66666 0.0221,-7.80302 -2.5251,-13.2326 -8.22527,-17.53224 -1.66637,-1.25696 -2.56507,-2.75011 -1.99707,-3.3181 1.68026,-1.68025 9.9877,3.56435 13.82624,8.7287 1.95748,2.63357 3.78866,5.07093 4.0693,5.41636 0.9735,1.19829 2.99117,-3.31263 3.01149,-6.7328 0.0251,-4.22543 -7.5924,-16.04366 -10.89823,-16.90815 -3.78042,-0.9886 -2.82901,-2.98711 1.42206,-2.98711 2.1102,0 4.58366,0.9 5.49658,2 6.02883,7.2643 4.64743,-5.11533 -1.42656,-12.78437 l -4.24634,-5.36146 -3.10547,2.91744 c -1.708,1.60459 -4.681,5.19094 -6.60667,7.96967 -3.44961,4.9778 -24.73584,20.48806 -36.61496,26.67959 -5.4078,2.8186 -7.77659,3.13311 -24,3.18653 -15.60685,0.0513 -19.24089,-0.36569 -27.333333,-3.137 -9.160205,-3.13698 -18.438206,-8.51204 -21.906616,-12.69121 -2.681418,-3.23091 -5.426719,-2.57547 -5.426719,1.29563 0,3.27853 10.939306,30.16833 13.665836,33.59185 0.730042,0.91667 2.523862,1.66667 3.986266,1.66667 2.05048,0 2.490204,0.64514 1.921635,2.81937 -0.531285,2.03163 0.439621,3.89429 3.474974,6.66667 2.31674,2.11601 4.970467,3.84729 5.897157,3.84729 0.9267,0 3.77675,-2.25 6.33345,-5 5.48541,-5.90016 6.18684,-3.62051 1.44035,4.68119 l -3.24821,5.68117 2.93094,1.84665 c 6.46425,4.07284 8.74567,3.90959 13.63061,-0.97536 4.18607,-4.18606 4.63366,-5.35489 4.63366,-12.10032 0,-4.10666 0.57889,-7.46666 1.28642,-7.46666 4.0095,0 5.44757,14.05117 2.04691,20 -2.89823,5.06993 -2.4565,6.27182 2.06136,5.60873 2.85079,-0.4184 5.38962,-2.33565 8.51763,-6.43229 z m 304.75436,0.15689 c 0,-1.83333 -0.6,-3.33333 -1.33333,-3.33333 -0.73334,0 -1.33334,1.5 -1.33334,3.33333 0,1.83333 0.6,3.33333 1.33334,3.33333 0.73333,0 1.33333,-1.5 1.33333,-3.33333 z m -202.66668,-2.07869 c 0,-1.42339 -0.6,-2.58798 -1.33333,-2.58798 -0.73333,0 -1.33333,1.53542 -1.33333,3.41203 0,1.93515 0.57712,3.05533 1.33333,2.58797 0.73333,-0.45322 1.33333,-1.98864 1.33333,-3.41202 z m -33,-110.20794 c -0.85513,-0.97495 -2.25618,-0.53975 -7.19066,2.23357 -5.118,2.87648 -5.22876,3.08128 -2.99892,5.54523 2.26122,2.49863 2.4113,2.44204 6.41913,-2.42016 2.25708,-2.73823 3.95379,-5.14961 3.77045,-5.35864 z m 270.84871,4.61865 c 1.02769,-1.62924 0.74846,-2.86553 -1.1114,-4.92064 -2.9573,-3.26778 -5.13826,-3.47473 -7.4364,-0.70562 -1.40422,1.69197 -1.16138,2.60421 1.42656,5.35894 3.37442,3.59191 4.98598,3.6524 7.12124,0.26732 z m -9.8487,1.08 c 0,-0.32338 -0.6,-0.9588 -1.33333,-1.41202 -0.73333,-0.45323 -1.33333,-0.18864 -1.33333,0.58797 0,0.77661 0.6,1.41203 1.33333,1.41203 0.73333,0 1.33333,-0.26459 1.33333,-0.58798 z m 16.58906,-8.35722 c 0.91128,-2.37476 -3.64164,-6.9675 -6.96423,-7.02515 -2.87591,-0.0499 -3.41795,3.91897 -0.91321,6.68668 2.9171,3.22337 6.70789,3.38625 7.87744,0.33847 z m -298.77356,-2.38814 c -0.81147,-2.11464 -3.14884,-2.77445 -3.14884,-0.88889 0,1.41003 1.45745,2.88889 2.84704,2.88889 0.58809,0 0.72391,-0.9 0.3018,-2 z m 304.32844,-4.33333 c 2.72992,-3.59621 2.2162,-5.19397 -2.26708,-7.05101 -3.44248,-1.42592 -4.31956,-1.39759 -5.31292,0.17157 -1.90232,3.00504 -1.43838,4.91603 1.73274,7.13717 3.68348,2.58002 3.69344,2.57958 5.84726,-0.25773 z m -308.81061,-3.71357 c 0,-2.96708 -0.32595,-3.20582 -2.66667,-1.9531 -2.75181,1.47274 -3.32259,2.89964 -1.77777,4.44444 2.03841,2.03842 4.44444,0.68971 4.44444,-2.49134 z m 314.84351,-7.0591 c 0.91562,-2.47512 0.38444,-3.4027 -3.19502,-5.57952 -4.02043,-2.44496 -4.3515,-2.46376 -5.21047,-0.296 -1.68093,4.24214 -1.13275,6.56054 1.89532,8.01566 3.91191,1.87985 5.17692,1.464 6.51017,-2.14014 z m -316.74761,-7.68736 c 6.16596,-3.61349 6.53766,-4.1446 4.8075,-6.86925 -1.29824,-2.04445 -12.23674,5.50425 -12.23674,8.44463 0,2.55116 0.60775,2.42228 7.42924,-1.57538 z m 319.04456,-2.53878 c 0.27239,-1.40535 -0.8612,-3.47126 -2.66667,-4.85987 l -3.14045,-2.41536 3,-0.0296 c 2.10123,-0.0208 3,-0.82856 3,-2.69632 0,-1.46667 -0.85093,-2.66667 -1.89095,-2.66667 -1.04002,0 -2.7665,-0.33597 -3.83661,-0.74662 -1.41792,-0.5441 -2.19009,0.63129 -2.84681,4.33333 -0.49563,2.79399 -1.17246,6.01297 -1.50406,7.15332 -0.38792,1.33403 0.7072,2.58812 3.0711,3.51691 4.66498,1.8329 6.22157,1.46992 6.81445,-1.58908 z m -321.29784,-4.8994 c 2.65322,-1.59402 4.98912,-3.0091 5.19088,-3.14462 0.66787,-0.44861 -4.92162,-12.62384 -5.79544,-12.62384 -0.47118,0 -0.53996,0.82543 -0.15282,1.83428 0.42834,1.11624 -0.13254,1.76867 -1.4327,1.66667 -2.27986,-0.17885 -6.8239,6.4388 -5.39938,7.86332 0.46684,0.46684 2.41958,-0.18041 4.33942,-1.43835 5.38479,-3.52824 5.51403,-1.3181 0.16166,2.76435 -7.86232,5.99688 -5.57103,8.28063 3.08838,3.07819 z m 321.49072,-11.85611 c 0,-2.71165 -2.77079,-6.57901 -4.71357,-6.57901 -2.41098,0 -2.65887,6.15965 -0.28643,7.11696 2.88384,1.16365 5,0.93597 5,-0.53795 z M 175.5439,251.40125 c -0.49555,-1.29136 -0.10067,-1.68623 1.19068,-1.19068 2.22725,0.85467 2.47385,-0.65641 0.57835,-3.54389 -1.16704,-1.77778 -1.4588,-1.77778 -2.62584,0 -1.77243,2.69998 -1.6997,6.66666 0.12226,6.66666 0.81179,0 1.14235,-0.86944 0.73458,-1.93209 z m 20.12277,-19.2784 c 3.11667,-6.1132 5.66667,-12.2417 5.66667,-13.61888 0,-5.34282 -4.19516,-2.05927 -9.96743,7.80149 -5.69117,9.72224 -7.21454,14.73479 -5.1159,16.83344 1.98549,1.9855 3.9743,-0.34112 9.41666,-11.01605 z m 291.92516,8.35101 c 0.99472,-2.59216 -2.94589,-5.97136 -5.72141,-4.90629 -1.93195,0.74136 -2.54862,4.64312 -0.98151,6.21021 1.69171,1.69172 5.86492,0.87991 6.70292,-1.30392 z m -11.59181,-7.88035 c 0,-1.14024 -2.34095,-5.52034 -5.2021,-9.73358 -4.05136,-5.96588 -4.9115,-8.1797 -3.88842,-10.00783 1.63458,-2.92084 0.4977,-6.18543 -2.15406,-6.18543 -2.93098,0 -5.1462,5.07538 -4.35181,9.97063 0.38125,2.34936 2.59787,7.36707 4.92581,11.15047 3.2086,5.21464 5.01143,6.8789 7.4516,6.8789 2.02291,0 3.21898,-0.77032 3.21898,-2.07316 z m -282.02429,-14.7597 c 2.70636,-2.70636 2.12926,-7.6595 -0.96106,-8.24846 -2.69924,-0.51442 -5.79285,5.13023 -4.56512,8.32963 1.02486,2.67073 2.80035,2.64467 5.52618,-0.0812 z m 19.14358,-45.22987 c 2.26994,-4.98196 1.84186,-5.72289 -1.1193,-1.93727 -2.81586,3.59986 -3.31878,5.33334 -1.54736,5.33334 0.61562,0 1.81562,-1.52823 2.66666,-3.39607 z m 247.00233,-12.77035 c 0.87591,-3.40854 1.14884,-7.88093 0.61028,-10 -0.94265,-3.709 -1.10037,-3.55688 -4.8531,4.6809 -3.68508,8.08924 -5.24855,17.15612 -2.68518,15.57186 0.65648,-0.40573 1.64064,0.30886 2.187,1.58798 1.06044,2.48266 1.06014,2.48345 4.741,-11.84074 z m -244.86607,-3.09281 c 4.0761,-6.92589 7.40024,-13.6759 7.38694,-15 -0.0133,-1.3241 -1.70541,0.64117 -3.76029,4.36726 -2.05488,3.72609 -5.26523,8.82609 -7.13412,11.33334 -3.08081,4.13316 -6.02851,11.89196 -4.51795,11.89196 0.33787,0 3.9493,-5.66665 8.02542,-12.59256 z m 241.21061,-15.1011 c 2.39397,-6.19422 2.83222,-13.24466 1.00281,-16.13254 -0.83989,-1.32583 -1.61256,-0.41252 -2.82001,3.33334 -0.91474,2.83774 -2.25391,5.90407 -2.97594,6.81408 -1.53218,1.93108 0.012,14.59562 1.56562,12.83963 0.56485,-0.63846 2.01724,-3.723 3.22752,-6.85451 z m -3.18408,-17.47125 c 2.64529,-7.86751 2.76669,-13.97791 0.35834,-18.03587 -0.39196,-0.66043 -2.14598,2.78415 -3.89784,7.65463 -2.75854,7.66926 -2.98753,9.58943 -1.70958,14.33537 0.81158,3.01398 1.68173,5.26939 1.93366,5.01203 0.25194,-0.25735 1.74387,-4.29213 3.31542,-8.96616 z"
         id="path1428" />
    </g>
  </g>
</svg>
